<?xml version="1.0" encoding="UTF-8"?>
<svg width="56px" height="119px" viewBox="0 0 56 119" version="1.1" xmlns="http://www.w3.org/2000/svg" xmlns:xlink="http://www.w3.org/1999/xlink">
    <title>Path 3</title>
    <g id="Page-1" stroke="none" stroke-width="1" fill="none" fill-rule="evenodd">
        <path d="M10.3195913,0.682718812 C11.0166358,2.43333164 11.1726211,4.3125208 10.7875473,6.3202863 C10.5774997,7.41546913 8.85741892,10.9999232 7.03198439,17.456149 C5.51090512,22.8359263 1.7966579,36.6555553 1.29591419,39.3391314 C0.795170484,42.0227075 0.89438131,43.9082089 1.846454,45.2463444 C3.12098786,47.0376982 3.54459752,47.689018 6.32484355,49.5577453 C10.733013,52.5206725 16.8429923,55.7868785 18.7912403,57.6417443 C20.9092496,59.6582345 22.4380239,62.5078687 23.377563,66.1906468 C24.1981214,71.9313853 24.6084006,77.2059663 24.6084006,82.0143898 C24.6084006,86.8228134 24.1981214,93.9291888 23.377563,103.333516 C23.1299256,104.780975 22.6296162,105.856249 21.8766346,106.559339 C21.1236531,107.262429 19.4030207,108.054467 16.7147376,108.935452 C14.3142762,109.474129 12.2743013,109.919177 10.5948129,110.270598 C8.07558021,110.79773 3.12098786,112.331681 3.12098786,113.696719 C3.12098786,114.606745 3.64286098,115.215453 4.68660723,115.522843 C6.57851471,116.08673 8.70337846,116.511956 11.0611985,116.798519 C13.4190185,117.085082 17.2110201,117.378977 22.4372034,117.680203 L29.2396926,117.680203 C35.1650113,117.703281 39.5409362,117.567589 42.3674673,117.273128 C44.0153548,117.101455 51.1153711,116.327094 51.1153711,114.199512 C51.1153711,112.07193 46.7482397,111.446249 43.930159,110.79773 C41.1120783,110.149211 34.0251724,108.08083 32.3870131,106.559339 C30.7488538,105.037848 30.7488538,103.333516 30.7488538,103.333516 C30.3422353,94.6170759 30.2047125,87.5695576 30.3362855,82.1909611 C30.533645,74.1230663 30.4397641,73.8230024 31.657455,66.1906468 C33.1593642,58.7542385 37.314647,56.4923591 39.9492406,55.0162676 C42.8091312,53.4139482 52.1138964,49.105506 53.913552,45.73012 C55.1133224,43.4798626 55.3758555,41.3495331 54.7011514,39.3391314 L48.072752,17.456149 C46.620075,12.1843174 45.668496,8.47236315 45.2180148,6.3202863 C44.8855331,4.59255299 45.1395524,2.71336383 45.9800727,0.682718812 L10.3195913,0.682718812 Z" id="Path-3" stroke="#979797" fill="#FFFFFF"></path>
    </g>
</svg>