<?xml version="1.0" encoding="UTF-8"?>
<svg width="62px" height="132px" viewBox="0 0 62 132" version="1.1" xmlns="http://www.w3.org/2000/svg" xmlns:xlink="http://www.w3.org/1999/xlink">
    <title>Path 2</title>
    <g id="Page-1" stroke="none" stroke-width="1" fill="none" fill-rule="evenodd">
        <path d="M12.1682667,7.0420115 C12.0832099,8.4598585 11.5427514,10.3546693 10.5468911,12.726444 C8.25777158,19.8155486 6.57028727,25.4073407 5.48443814,29.5018203 C4.39858902,33.5962999 2.97857295,39.7221548 1.22438993,47.8793852 C0.785212512,50.3794169 0.785212512,52.1755202 1.22438993,53.2676952 C1.53142595,54.0312523 3.1840256,55.9754976 5.48443814,57.8942437 C8.11971317,60.0922945 11.5167493,62.2951386 13.2098295,63.3027253 C15.3238442,64.5608187 18.5889168,66.2304457 23.0050472,68.3116064 C25.4290685,72.6238804 26.8548876,77.8011096 27.2825046,83.8432941 C27.6776671,89.4269007 27.4894999,87.1506868 27.8284166,91.531411 C28.1673333,95.9121353 27.7597465,105.012214 27.5894172,108.156714 C27.4080821,111.504395 26.6285098,113.874784 25.2507003,115.267881 C24.4584672,116.249107 23.1711333,117.094633 21.3886985,117.804458 C19.6062637,118.514284 15.7228631,119.569023 9.73849667,120.968677 C7.46365082,121.561035 6.1731489,122.272489 5.86699092,123.103042 C5.40775395,124.34887 5.80569914,125.273327 6.32622789,125.989151 C6.75193455,126.574577 7.88935748,127.275735 9.73849667,128.092623 C12.5354703,128.836861 14.5961491,129.319463 15.9205328,129.54043 C21.5723062,130.483402 26.3523294,130.676187 29.9402611,130.676187 C32.962132,130.676187 37.6085208,130.784832 42.618501,130.115931 C44.6380575,129.846292 47.820678,129.171856 52.1663623,128.092623 C52.6695325,127.932055 53.4903371,127.541334 54.6287762,126.920461 C55.7672153,126.299588 55.9506116,125.209331 55.1789651,123.649691 C54.4211764,122.715991 52.8352036,121.82232 50.4210466,120.968677 C48.4975323,120.288525 41.7140799,119.085121 39.1855537,117.804458 C36.6570275,116.523796 35.7415959,114.399606 35.3836807,113.66925 C34.8452742,112.570586 34.4028932,110.733074 34.0565379,108.156714 C33.8597421,106.098082 33.7436029,104.605619 33.7081203,103.679326 C33.5450893,99.4233121 33.6470334,96.1268265 33.7081203,93.7831969 C33.7281491,93.0147824 33.8428547,83.5676137 35.0031838,77.2003829 C35.4748166,74.6123282 36.5526992,71.6494027 38.2368316,68.3116064 C42.6559788,66.5347232 46.4927564,64.6703741 49.7471643,62.7185589 C53.0015722,60.7667438 56.2355378,58.2084669 59.4490609,55.043728 C60.2720517,53.8707625 60.7419283,52.7739823 60.8586906,51.7533875 C60.975453,50.7327928 60.8106584,49.1629152 60.3643071,47.0437548 C58.7001267,39.7872738 57.3575026,34.1037084 56.3364348,29.9930585 C55.315367,25.8824086 53.701612,19.8961182 51.4951698,12.0341874 C50.847136,10.0430836 50.489095,8.55127847 50.4210466,7.55877188 C50.3529982,6.5662653 50.7110393,4.27424761 51.4951698,0.682718812 L11.242433,0.682718812 C11.9447122,3.50440026 12.2533234,5.62416449 12.1682667,7.0420115 Z" id="Path-2" stroke="#979797" fill="#FFFFFF"></path>
    </g>
</svg>