<?xml version="1.0" encoding="UTF-8"?>
<svg width="62px" height="131px" viewBox="0 0 62 131" version="1.1" xmlns="http://www.w3.org/2000/svg" xmlns:xlink="http://www.w3.org/1999/xlink">
    <title>Path</title>
    <g id="Page-1" stroke="none" stroke-width="1" fill="none" fill-rule="evenodd">
        <g id="small-teku" fill="#FFFFFF" fill-rule="nonzero">
            <path d="M51.0300627,0.682718812 C50.3277835,3.50440026 50.0191722,5.62416449 50.104229,7.0420115 C50.1892857,8.4598585 50.7297443,10.3546693 51.7256045,12.726444 C54.0147241,19.8155486 55.7022084,25.4073407 56.7880575,29.5018203 C57.8739066,33.5962999 59.2939227,39.7221548 61.0481057,47.8793852 C61.4872831,50.3794169 61.4872831,52.1755202 61.0481057,53.2676952 C60.7410697,54.0312523 59.08847,55.9754976 56.7880575,57.8942437 C54.1527825,60.0922945 50.7557464,62.2951386 49.0626661,63.3027253 C46.9486514,64.5608187 43.6835788,66.2304457 39.2674484,68.3116064 C36.8434272,72.6238804 35.4176081,77.8011096 34.9899911,83.8432941 C34.7874153,86.7056688 34.7381379,87.5024922 34.6925629,88.1894754 L34.6820433,88.3469504 C34.6555679,88.740214 34.6264948,89.1469906 34.5660979,89.9428221 L34.5373392,90.3202215 C34.5115292,90.6577297 34.4809178,91.0552454 34.444079,91.531411 C34.2963461,93.4409575 34.2904538,96.2472123 34.3449236,99.0660415 L34.3665219,100.060005 C34.4459866,103.365359 34.5957301,106.54415 34.6830785,108.156714 C34.8644135,111.504395 35.6439858,113.874784 37.0217953,115.267881 C37.8140284,116.249107 39.1013624,117.094633 40.8837972,117.804458 C42.6662319,118.514284 46.5496325,119.569023 52.533999,120.968677 C54.8088448,121.561035 56.0993467,122.272489 56.4055047,123.103042 C56.8647417,124.34887 56.4667965,125.273327 55.9462677,125.989151 C55.5205611,126.574577 54.3831382,127.275735 52.533999,128.092623 C49.7370253,128.836861 47.6763466,129.319463 46.3519628,129.54043 C40.9450014,130.442556 35.0204902,130.664056 31.3757914,130.682719 L30.8950069,130.682719 C27.2512543,130.664028 21.3271514,130.442499 15.9205328,129.54043 C14.5961491,129.319463 12.5354703,128.836861 9.73849667,128.092623 C7.88935748,127.275735 6.75193455,126.574577 6.32622789,125.989151 C5.80569914,125.273327 5.40775395,124.34887 5.86699092,123.103042 C6.1731489,122.272489 7.46365082,121.561035 9.73849667,120.968677 C15.7228631,119.569023 19.6062637,118.514284 21.3886985,117.804458 C23.1711333,117.094633 24.4584672,116.249107 25.2507003,115.267881 C26.6285098,113.874784 27.4080821,111.504395 27.5894172,108.156714 C27.7597465,105.012214 28.1673333,95.9121353 27.8284166,91.531411 C27.7915778,91.0552454 27.7609664,90.6577297 27.7351564,90.3202215 L27.7063977,89.9428221 C27.6500273,89.200046 27.6209434,88.79618 27.5957906,88.4258945 L27.5851834,88.2683665 L27.5802953,88.1949398 L27.5802953,88.1949398 L27.5704015,88.0451322 C27.5268317,87.3827613 27.4711096,86.5082636 27.2825046,83.8432941 C26.8548876,77.8011096 25.4290685,72.6238804 23.0050472,68.3116064 C18.5889168,66.2304457 15.3238442,64.5608187 13.2098295,63.3027253 C11.5167493,62.2951386 8.11971317,60.0922945 5.48443814,57.8942437 C3.1840256,55.9754976 1.53142595,54.0312523 1.22438993,53.2676952 C0.785212512,52.1755202 0.785212512,50.3794169 1.22438993,47.8793852 C2.97857295,39.7221548 4.39858902,33.5962999 5.48443814,29.5018203 C6.57028727,25.4073407 8.25777158,19.8155486 10.5468911,12.726444 C11.5427514,10.3546693 12.0832099,8.4598585 12.1682667,7.0420115 C12.2488467,5.69878802 11.9761071,3.72558897 11.3500477,1.12241435 L11.242433,0.682718812 L51.0300627,0.682718812 Z" id="Shape"></path>
        </g>
    </g>
</svg>