<?xml version="1.0" encoding="UTF-8"?>
<svg width="262px" height="639px" viewBox="0 0 262 639" version="1.1" xmlns="http://www.w3.org/2000/svg" xmlns:xlink="http://www.w3.org/1999/xlink">
    <title>Combined Shape</title>
    <g id="Page-1" stroke="none" stroke-width="1" fill="none" fill-rule="evenodd">
        <path d="M131.5,0.284314903 C131.55584,4.0097732 131.610848,7.70244002 131.665034,11.3626373 L131.656401,11.3089136 C132.678302,7.67365913 133.71979,3.99925188 134.781064,0.284314903 C160.172059,0.284314903 193.026481,2.55624487 233.344331,7.1001048 C235.638698,10.1554007 236.785881,12.4468725 236.785881,13.9745205 C236.785881,15.5021684 235.638698,17.379641 233.344331,19.6069381 C230.973541,23.0311197 232.120725,29.7904551 236.785881,39.8849444 C240.481111,47.8807023 247.349231,52.6802091 255.51139,64.9746075 C256.939662,67.1259683 258.922806,72.2829464 261.460821,80.4455417 L261.460821,589.558745 C261.460821,596.209806 258.51578,601.285425 252.625699,604.785602 C239.771453,610.142985 232.040812,617.575431 229.433774,627.08294 C226.02629,634.752134 193.381698,638.586731 131.5,638.586731 L130.371,631.274315 L130.460821,638.586731 C69.1979398,638.586731 36.590347,634.828443 32.6380428,627.311866 L32.5270471,627.08294 C29.9200093,617.575431 22.1893677,610.142985 9.33512236,604.785602 C3.44504079,601.285425 0.5,596.209806 0.5,589.558745 L0.5,589.558745 L0.5,80.4455417 C3.0380151,72.2829464 5.02115881,67.1259683 6.44943113,64.9746075 C14.61159,52.6802091 21.4797096,47.8807023 25.1749399,39.8849444 C29.8400965,29.7904551 30.98728,23.0311197 28.6164904,19.6069381 C26.3221234,17.379641 25.1749399,15.5021684 25.1749399,13.9745205 C25.1749399,12.4468725 26.3221234,10.1554007 28.6164904,7.1001048 C71.8145021,2.55624487 106.109005,0.284314903 131.5,0.284314903 Z" id="Combined-Shape" fill="#FFFFFF"></path>
    </g>
</svg>