<?xml version="1.0" encoding="UTF-8"?>
<svg width="53px" height="102px" viewBox="0 0 53 102" version="1.1" xmlns="http://www.w3.org/2000/svg" xmlns:xlink="http://www.w3.org/1999/xlink">
    <title>lager</title>
    <g id="Page-1" stroke="none" stroke-width="1" fill="none" fill-rule="evenodd">
        <path d="M10.9544474,101.682719 C9.99806713,100.673116 9.40251193,99.9794336 9.16778177,99.6016719 C7.57242622,97.0341957 7.95484722,92.3900628 7.95484722,92.3900628 C9.01380226,81.7369288 9.55321277,74.0385614 9.57307876,69.2949605 L9.57301896,68.750522 C9.56278239,66.5388286 9.42770333,65.0371426 9.16778177,64.2454639 C7.3351942,58.663701 3.16876505,53.9220279 2.97232549,53.573025 C0.0460505556,49.7293381 0.820231879,45.5089989 1.05103775,44.055791 C3.54808708,28.3337834 5.52281567,16.6299262 6.70985861,9.6661349 C7.11448503,7.29239264 6.92550769,4.29792061 6.14292658,0.682718812 L46.6892398,0.682718812 C45.8759368,4.29792061 45.6795407,7.29239264 46.1000516,9.6661349 C47.2060763,15.909534 48.9701021,25.9630218 51.1933858,39.3063478 L51.4519454,40.8605326 C51.6256621,41.9063496 51.8020511,42.9715146 51.9810219,44.055791 C52.2208885,45.5089989 53.025462,49.7293381 49.9843098,53.573025 C49.7801586,53.9220279 45.4501671,58.663701 43.5456373,64.2454639 C43.275512,65.0371426 43.1351301,66.5388286 43.1244916,68.750522 L43.1244295,69.2949605 C43.1450754,74.0385614 43.7056616,81.7369288 44.8061883,92.3900628 C44.8061883,92.3900628 45.203622,97.0341957 43.5456373,99.6016719 C43.3016923,99.9794336 42.6827573,100.673116 41.6888322,101.682719 L41.6888322,101.682719 L10.9544474,101.682719 Z" id="lager" fill="#000000"></path>
    </g>
</svg>
