<?xml version="1.0" encoding="UTF-8"?>
<svg width="52px" height="103px" viewBox="0 0 52 103" version="1.1" xmlns="http://www.w3.org/2000/svg" xmlns:xlink="http://www.w3.org/1999/xlink">
    <title>Path</title>
    <g id="Page-1" stroke="none" stroke-width="1" fill="none" fill-rule="evenodd">
        <path d="M6.14292658,0.682718812 L45.9241103,0.682718812 C44.7992617,3.85725771 44.4556293,6.85172974 44.8932134,9.6661349 C45.3307974,12.4805401 47.2577692,23.9437588 50.6741289,44.055791 C51.360746,47.7091083 50.5154716,50.8815196 48.1383057,53.573025 C43.8250658,59.1919007 42.7128836,61.6009188 41.7625709,64.2454639 C40.8538402,67.6740812 43.4047487,92.3900628 43.4047487,92.3900628 C43.727765,95.5174191 43.727765,97.5143588 43.4047487,98.3808821 C43.0674926,99.2856048 42.2171898,100.386217 40.8538402,101.682719 L10.9544474,101.682719 C9.99806713,100.673116 9.40251193,99.9794336 9.16778177,99.6016719 C7.57242622,97.0341957 7.95484722,92.3900628 7.95484722,92.3900628 C9.57442552,76.0970343 9.97873703,66.7155014 9.16778177,64.2454639 C7.3351942,58.663701 3.16876505,53.9220279 2.97232549,53.573025 C0.0460505556,49.7293381 0.820231879,45.5089989 1.05103775,44.055791 C3.54808708,28.3337834 5.52281567,16.6299262 6.70985861,9.6661349 C7.11448503,7.29239264 6.92550769,4.29792061 6.14292658,0.682718812 Z" id="Path" stroke="#979797" fill="#FFFFFF"></path>
    </g>
</svg>