<?xml version="1.0" encoding="UTF-8"?>
<svg width="45px" height="102px" viewBox="0 0 45 102" version="1.1" xmlns="http://www.w3.org/2000/svg" xmlns:xlink="http://www.w3.org/1999/xlink">
    <title>lager</title>
    <g id="Page-1" stroke="none" stroke-width="1" fill="none" fill-rule="evenodd">
        <g id="lager" transform="translate(0.781166, 0.664842)" fill="#000000" fill-rule="nonzero">
            <path d="M40.236345,0 C40.1487334,4.40428641 40.2472589,8.15069824 40.4559883,11.5079179 L40.5451776,12.8306858 C40.5609621,13.0478999 40.5771914,13.2635435 40.593843,13.4776962 L40.6986401,14.7453581 L40.6986401,14.7453581 L40.8124924,15.9810594 L40.8124924,15.9810594 L40.93432,17.1886213 C40.9552293,17.387749 40.9764258,17.5858634 40.9978871,17.7830441 L41.1296528,18.9555618 L41.1296528,18.9555618 L41.266694,20.1094931 L41.266694,20.1094931 L41.479785,21.8139 L41.479785,21.8139 L42.1392496,26.8567606 L42.1392496,26.8567606 L42.3536525,28.55725 L42.3536525,28.55725 L42.5592714,30.289002 L42.5592714,30.289002 L42.6896708,31.4672402 L42.6896708,31.4672402 L42.8134663,32.668926 L42.8134663,32.668926 L42.9295781,33.8978806 C42.9482297,34.1051911 42.9665162,34.313797 42.984415,34.5237779 L43.0869763,35.8008008 C43.135751,36.4481993 43.1806318,37.109406 43.2210114,37.7865705 L43.2955887,39.1628133 C43.3069579,39.3959456 43.317782,39.6310101 43.3280385,39.8680866 C43.5005452,41.9788722 42.9227516,44.7795983 42.0470965,47.9068029 L41.7759166,48.8543952 L41.7759166,48.8543952 L41.4895796,49.8193954 L41.4895796,49.8193954 L41.0375928,51.2947652 L41.0375928,51.2947652 L39.744439,55.406665 C38.5513647,59.2216918 37.4137444,63.1011065 36.9633849,66.5373538 C36.504528,70.0384359 36.4531602,72.4951471 36.6268631,74.8481342 L36.6824593,75.5184064 C36.6926935,75.6299189 36.7033987,75.7413993 36.7145552,75.8529492 L36.7867517,76.5238955 L36.7867517,76.5238955 L36.8688332,77.2013854 L36.8688332,77.2013854 L36.9598544,77.8902943 L36.9598544,77.8902943 L37.0588696,78.5954977 L37.0588696,78.5954977 L37.5780142,82.101278 L37.5780142,82.101278 L37.7040965,82.9832485 L37.7040965,82.9832485 L37.8320272,83.9132035 L37.8320272,83.9132035 L38.0253209,85.4087718 L38.0253209,85.4087718 L38.1537363,86.4800179 C38.1750434,86.6638442 38.1962897,86.8503809 38.2174554,87.0397294 L38.3435133,88.217998 L38.3435133,88.217998 L38.4061707,91.399378 L38.4061707,91.399378 L38.4359225,93.7159936 L38.4359225,93.7159936 L38.4454463,95.0542796 L38.4454463,95.0542796 L38.4454387,96.8851995 L38.4454387,96.8851995 L38.4330033,98.088697 L38.4330033,98.088697 L38.4077482,99.1548934 L38.4077482,99.1548934 L38.3855268,99.7076917 L38.3855268,99.7076917 L38.3574237,100.181964 L38.3574237,100.181964 L38.335186,100.449131 L38.335186,100.449131 L38.2962243,100.768278 L38.2962243,100.768278 L38.2663078,100.921924 C38.2452731,101.007693 38.2220266,101.059417 38.1963804,101.072787 L35.1697609,101.084162 L35.1697609,101.084162 L21.2720881,101.026783 L21.2720881,101.026783 L8.87882566,101.084162 L8.87882566,101.084162 L5.41877327,101.075371 C5.27148067,101.074569 5.12074473,101.073708 4.96628751,101.072787 C4.94778264,101.06276 4.93057631,101.031158 4.91459237,100.9798 L4.88423176,100.851282 L4.88423176,100.851282 L4.85699542,100.673315 L4.85699542,100.673315 L4.83274795,100.449131 L4.83274795,100.449131 L4.80168468,100.033272 L4.80168468,100.033272 L4.77658472,99.5316119 L4.77658472,99.5316119 L4.75699108,98.955063 L4.75699108,98.955063 L4.73864173,98.088697 L4.73864173,98.088697 L4.72487207,96.376672 L4.72487207,96.376672 L4.73464753,93.8490597 L4.73464753,93.8490597 L4.79788903,89.4826708 L4.79788903,89.4826708 L4.82491759,88.2103764 L4.82491759,88.2103764 L4.9460121,87.0397294 L4.9460121,87.0397294 L5.06896671,85.9365685 L5.06896671,85.9365685 L5.1928718,84.8960183 L5.1928718,84.8960183 L5.31681776,83.9132035 L5.31681776,83.9132035 L5.50082358,82.5365699 L5.50082358,82.5365699 L6.10917685,78.2405545 L6.10917685,78.2405545 L6.24346965,77.2013854 L6.24346965,77.2013854 L6.32243717,76.5238955 C6.33483119,76.4116612 6.34682896,76.2996996 6.35841152,76.1879091 L6.42277291,75.5184064 L6.42277291,75.5184064 L6.47625985,74.8481342 C6.48421761,74.7360872 6.49168436,74.623805 6.49864116,74.511186 L6.53411093,73.8306183 L6.53411093,73.8306183 L6.55643225,73.1370927 C6.57187613,72.4354629 6.56623291,71.7070831 6.53540935,70.9300141 L6.49604073,70.1359027 C6.44797546,69.3239364 6.37336544,68.4559677 6.26811741,67.5100573 L6.15250512,66.5373538 L6.15250512,66.5373538 C5.87922743,64.3700173 5.3429179,62.0263809 4.6960917,59.6337978 L4.39026456,58.5265169 L4.39026456,58.5265169 L4.07207488,57.4150674 L4.07207488,57.4150674 L3.5788997,55.7461635 L3.5788997,55.7461635 L2.2499568,51.35192 L2.2499568,51.35192 L1.93263178,50.2811957 L1.93263178,50.2811957 L1.62793534,49.2271708 L1.62793534,49.2271708 L1.33919962,48.1926277 C0.453658267,44.9503579 -0.141686148,42.0429795 0.0293163532,39.8680866 C0.0490510757,39.3939337 0.070970227,38.9278284 0.0949006462,38.4691338 L0.172552546,37.1146457 C0.186442443,36.8923907 0.200791867,36.6718293 0.215579172,36.4528816 L0.309384422,35.1579254 C0.325836673,34.9451148 0.342683516,34.7337589 0.359903304,34.5237779 L0.467524231,33.2797559 L0.467524231,33.2797559 L0.583056903,32.0649133 L0.583056903,32.0649133 L0.705462352,30.875429 L0.705462352,30.875429 L0.833701615,29.7074816 L0.833701615,29.7074816 L1.03472617,27.9875835 L1.03472617,27.9875835 L1.8074501,21.8139 L1.8074501,21.8139 L2.0124567,20.1094931 L2.0124567,20.1094931 L2.14429877,18.9555618 L2.14429877,18.9555618 L2.27106552,17.7830441 L2.27106552,17.7830441 L2.39171797,16.588119 L2.39171797,16.588119 L2.50521716,15.366965 L2.50521716,15.366965 L2.61052413,14.1157611 L2.61052413,14.1157611 L2.70659991,12.8306858 L2.70659991,12.8306858 L2.79240554,11.5079179 C2.80579291,11.2841033 2.81870906,11.0585589 2.83113236,10.8312052 L2.89958469,9.44473361 C3.01360282,6.86072811 3.06274695,4.03852545 3.01820744,0.87216523 L3.00371592,0 L40.236345,0 Z" id="Path"></path>
        </g>
    </g>
</svg>