<?xml version="1.0" encoding="UTF-8"?>
<svg width="886px" height="791px" viewBox="0 0 886 791" version="1.1" xmlns="http://www.w3.org/2000/svg" xmlns:xlink="http://www.w3.org/1999/xlink">
    <title>Combined Shape</title>
    <g id="Page-1" stroke="none" stroke-width="1" fill="none" fill-rule="evenodd">
        <path d="M446.19352,0.300703574 L446.197149,0.366707841 C571.506386,1.73163936 655.750871,4.50677765 698.930605,8.69212273 C742.81835,12.9460942 771.017558,21.2481751 783.528228,33.5983653 L767.398419,96.9270104 C762.020038,115.404284 764.969951,143.375497 776.24816,180.840651 C817.018938,316.277364 886,479.904388 886,553.304798 C850.608389,656.005558 692.953267,752.849917 619.114036,771.829531 C571.342526,784.108706 513.702628,790.429719 446.194341,790.792572 L446.19352,790.809145 C445.158518,790.809145 444.125796,790.807769 443.095352,790.805018 C442.067056,790.80777 441.034666,790.809145 440,790.809145 L440.000177,790.792577 C372.49146,790.429782 314.851229,784.108766 267.079484,771.829531 C193.240253,752.849917 35.5851305,656.005558 0.193519838,553.304798 C0.193519838,479.904388 69.1745814,316.277364 109.94536,180.840651 C121.223568,143.375497 124.173482,115.404284 118.795101,96.9270104 L118.795101,96.9270104 L102.665292,33.5983653 C115.175962,21.2481751 143.375169,12.9460942 187.262915,8.69212273 C230.442763,4.50676653 314.687582,1.7316246 439.99737,0.366696957 L440,0.300703574 L443.09652,0.332703574 L446.19352,0.300703574 Z" id="Combined-Shape" fill="#000000"></path>
    </g>
</svg>