<?xml version="1.0" encoding="UTF-8"?>
<svg width="53px" height="119px" viewBox="0 0 53 119" version="1.1" xmlns="http://www.w3.org/2000/svg" xmlns:xlink="http://www.w3.org/1999/xlink">
    <title>small-teku</title>
    <g id="Page-1" stroke="none" stroke-width="1" fill="none" fill-rule="evenodd">
        <path d="M43.106789,0.682718812 C42.4097445,2.43333164 42.2537592,4.3125208 42.638833,6.3202863 C42.8488806,7.41546913 44.5689614,10.9999232 46.3943959,17.456149 C47.0281789,19.6977229 48.0427203,23.4045488 49.0469124,27.1605456 L49.2875195,28.0622039 C50.6075632,33.0185417 51.8550571,37.8631645 52.1304661,39.3391314 C52.6312098,42.0227075 52.531999,43.9082089 51.5799263,45.2463444 C50.3053924,47.0376982 49.8817828,47.689018 47.1015367,49.5577453 C42.6933673,52.5206725 36.583388,55.7868785 34.63514,57.6417443 C32.5171307,59.6582345 30.9883564,62.5078687 30.0488173,66.1906468 C29.2282589,71.9313853 28.8179797,77.2059663 28.8179797,82.0143898 C28.8179797,86.8228134 29.2282589,93.9291888 30.0488173,103.333516 C30.2964547,104.780975 30.7967641,105.856249 31.5497457,106.559339 C32.3027272,107.262429 34.0233596,108.054467 36.7116427,108.935452 C39.1121041,109.474129 41.152079,109.919177 42.8315674,110.270598 C45.3508001,110.79773 50.3053924,112.331681 50.3053924,113.696719 C50.3053924,114.606745 49.7835193,115.215453 48.7397731,115.522843 C42.357631,117.420391 34.7777066,118.369166 26,118.369166 C17.4754601,118.371708 10.0376625,117.422086 3.68660723,115.522843 C2.64286098,115.215453 2.12098786,114.606745 2.12098786,113.696719 C2.12098786,112.331681 7.07558021,110.79773 9.59481288,110.270598 C11.2743013,109.919177 13.3142762,109.474129 15.7147376,108.935452 C18.4030207,108.054467 20.1236531,107.262429 20.8766346,106.559339 C21.6296162,105.856249 22.1299256,104.780975 22.377563,103.333516 C23.1981214,93.9291888 23.6084006,86.8228134 23.6084006,82.0143898 C23.6084006,77.2059663 23.1981214,71.9313853 22.377563,66.1906468 C21.4380239,62.5078687 19.9092496,59.6582345 17.7912403,57.6417443 C15.8429923,55.7868785 9.73301298,52.5206725 5.32484355,49.5577453 C2.54459752,47.689018 2.12098786,47.0376982 0.846454004,45.2463444 C-0.10561869,43.9082089 -0.204829516,42.0227075 0.295914193,39.3391314 C0.571323233,37.8631645 1.81881709,33.0185417 3.13886079,28.0622039 L3.37946793,27.1605456 C4.38366001,23.4045488 5.39820136,19.6977229 6.03198439,17.456149 C7.85741892,10.9999232 9.57749974,7.41546913 9.7875473,6.3202863 C10.148554,4.43800615 10.0340204,2.66873254 9.44394657,1.01246547 L9.31959126,0.682718812 L43.106789,0.682718812 Z M15.9434286,22.096 C13.4954286,22.096 13.4954286,22.096 11.9234286,23.344 C10.4496786,24.514 10.4496786,24.514 10.2310067,26.5488437 L10.2074286,26.824 L12.8714286,26.824 C13.0154286,25.816 13.0154286,25.816 13.7594286,25.132 C14.5034286,24.448 14.5034286,24.448 15.8474286,24.448 C17.2154286,24.448 17.2154286,24.448 17.9594286,25.132 C18.7034286,25.816 18.7034286,25.816 18.7034286,26.968 C18.7034286,28.312 18.7034286,28.312 17.6834286,28.936 C16.7484286,29.508 16.7484286,29.508 15.0370119,29.5758333 L14.7194286,29.584 L14.0714286,29.584 L14.0714286,31.84 L14.6954286,31.84 C16.9034286,31.84 16.9034286,31.84 17.9714286,32.548 C19.0394286,33.256 19.0394286,33.256 19.0394286,34.936 C19.0394286,36.208 19.0394286,36.208 18.2474286,37.012 C17.4554286,37.816 17.4554286,37.816 15.9914286,37.816 C14.4794286,37.816 14.4794286,37.816 13.5914286,37.012 C12.7841558,36.2810909 12.7841558,36.2810909 12.6314286,35.163405 L12.6074286,34.936 L9.96742857,34.936 C10.0874286,37.432 10.0874286,37.432 11.7554286,38.764 C13.4234286,40.096 13.4234286,40.096 16.0154286,40.096 C17.7914286,40.096 17.7914286,40.096 19.0634286,39.46 C20.3354286,38.824 20.3354286,38.824 20.9834286,37.72 C21.6314286,36.616 21.6314286,36.616 21.6314286,35.2 C21.6314286,33.424 21.6314286,33.424 20.8394286,32.284 C20.1194286,31.2476364 20.1194286,31.2476364 18.8837261,30.7963967 L18.6314286,30.712 L18.6314286,30.616 C19.7354286,30.256 19.7354286,30.256 20.5274286,29.2 C21.3194286,28.144 21.3194286,28.144 21.3194286,26.656 C21.3194286,25.36 21.3194286,25.36 20.6954286,24.328 C20.0714286,23.296 20.0714286,23.296 18.8474286,22.696 C17.6234286,22.096 17.6234286,22.096 15.9434286,22.096 Z M36.628,22.096 C34.18,22.096 34.18,22.096 32.608,23.344 C31.13425,24.514 31.13425,24.514 30.9155781,26.5488437 L30.892,26.824 L33.556,26.824 C33.7,25.816 33.7,25.816 34.444,25.132 C35.188,24.448 35.188,24.448 36.532,24.448 C37.9,24.448 37.9,24.448 38.644,25.132 C39.388,25.816 39.388,25.816 39.388,26.968 C39.388,28.312 39.388,28.312 38.368,28.936 C37.433,29.508 37.433,29.508 35.7215833,29.5758333 L35.404,29.584 L34.756,29.584 L34.756,31.84 L35.38,31.84 C37.588,31.84 37.588,31.84 38.656,32.548 C39.724,33.256 39.724,33.256 39.724,34.936 C39.724,36.208 39.724,36.208 38.932,37.012 C38.14,37.816 38.14,37.816 36.676,37.816 C35.164,37.816 35.164,37.816 34.276,37.012 C33.4687273,36.2810909 33.4687273,36.2810909 33.316,35.163405 L33.292,34.936 L30.652,34.936 C30.772,37.432 30.772,37.432 32.44,38.764 C34.108,40.096 34.108,40.096 36.7,40.096 C38.476,40.096 38.476,40.096 39.748,39.46 C41.02,38.824 41.02,38.824 41.668,37.72 C42.316,36.616 42.316,36.616 42.316,35.2 C42.316,33.424 42.316,33.424 41.524,32.284 C40.804,31.2476364 40.804,31.2476364 39.5682975,30.7963967 L39.316,30.712 L39.316,30.616 C40.42,30.256 40.42,30.256 41.212,29.2 C42.004,28.144 42.004,28.144 42.004,26.656 C42.004,25.36 42.004,25.36 41.38,24.328 C40.756,23.296 40.756,23.296 39.532,22.696 C38.308,22.096 38.308,22.096 36.628,22.096 Z" id="small-teku" fill="#FFFFFF"></path>
    </g>
</svg>