<?xml version="1.0" encoding="UTF-8"?>
<svg width="792px" height="115px" viewBox="0 0 792 115" version="1.1" xmlns="http://www.w3.org/2000/svg" xmlns:xlink="http://www.w3.org/1999/xlink">
    <title>stateside</title>
    <g id="stateside" stroke="none" stroke-width="1" fill="none" fill-rule="evenodd">
        <path d="M136.9675,59.4396 L130.2915,65.1346 C131.6265,66.9636 131.8325,68.7936 131.9345,70.5226 L137.6865,65.5396 C137.6865,63.5076 137.4805,61.0666 136.9675,59.4396 L136.9675,59.4396 Z M132.0385,29.4446 L132.0385,23.5476 L129.2655,25.8866 C130.2915,27.0036 131.2155,28.2246 132.0385,29.4446 L132.0385,29.4446 Z M125.9785,80.7926 C133.6815,78.2496 136.8635,74.2846 137.5825,67.4726 L131.8325,72.4546 C131.4215,75.4036 129.6765,78.4536 125.9785,80.6916 L125.9785,80.7926 Z M136.4545,58.0166 C135.7335,56.4906 134.8095,55.0676 133.6815,53.7466 L125.1565,61.0666 C127.1085,62.0826 128.4425,63.1006 129.4705,64.1166 L136.4545,58.0166 Z M132.0385,21.0056 C131.4215,21.4116 130.8045,21.6146 130.1895,21.8186 C127.2105,22.6326 126.0805,22.5306 124.2325,22.0226 C126.1845,23.0386 127.3145,23.9536 128.3405,24.9716 L132.0385,21.8186 L132.0385,21.0056 Z M132.7565,52.7286 C131.5235,51.5086 130.1895,50.4926 128.6485,49.4746 L118.2765,58.5246 C120.2275,59.1346 121.8705,59.7446 123.8225,60.4556 L132.7565,52.7286 Z M127.4165,48.7636 C125.8755,47.9506 124.1305,47.1366 122.3855,46.4246 L110.9855,56.2866 L116.8385,58.0166 L127.4165,48.7636 Z M115.1955,44.0866 L103.5925,54.1516 L109.4445,55.7786 L120.9455,45.9166 L115.1955,44.0866 Z M113.5525,43.6796 L107.6995,41.9516 L96.4025,52.2206 L101.8455,53.7466 L113.5525,43.6796 Z M100.4075,39.8166 L88.4945,49.9826 L94.3485,51.7126 L106.1575,41.4436 L100.4075,39.8166 Z M98.8665,39.3066 L93.1165,37.5786 L81.4095,47.6446 C82.8465,48.1546 84.7975,48.8656 86.9555,49.5776 L98.8665,39.3066 Z M85.9275,35.2406 L75.2475,44.3906 C76.0685,45.3056 77.9175,46.1206 79.9715,47.1366 L91.4735,37.0706 C88.9065,36.2566 87.5705,35.9526 85.9275,35.2406 L85.9275,35.2406 Z M84.4895,34.5286 C83.0525,33.7146 81.6145,32.6986 80.4845,31.2756 L70.8315,39.6126 C71.5505,40.7316 72.5765,42.0526 74.1185,43.4756 L84.4895,34.5286 Z M70.2145,79.0626 C71.8585,76.6236 76.2745,75.3006 80.5885,76.4196 C77.5065,74.3856 76.4795,73.8776 74.1185,71.0306 L70.2145,74.3856 L70.2145,79.0626 Z M73.1935,70.0146 C71.9615,68.1846 71.3445,66.6586 70.2145,64.6246 L70.2145,72.5556 L73.1935,70.0146 Z M79.5605,21.8186 C80.4845,19.6836 82.3335,17.4466 84.6955,16.5306 C74.9385,18.5646 70.9335,24.2596 69.9075,30.1566 L79.5605,21.8186 Z M78.6365,24.3606 L69.5995,32.1906 C69.5995,32.9016 69.1885,36.0526 70.2145,38.3936 L79.7665,30.1566 C79.0475,28.8336 78.6365,26.6996 78.6365,24.3606 L78.6365,24.3606 Z M73.7065,45.8146 C67.5455,39.6126 67.4435,37.0706 67.4435,32.4946 C67.4435,17.5486 84.4895,12.7696 100.1005,12.7696 C112.1155,12.7696 119.9195,18.1576 122.3855,19.5826 C125.0545,21.1066 128.5465,20.1916 129.6765,19.8876 C130.9085,19.5826 133.0645,18.1576 134.0905,15.1076 L136.1455,15.1076 L136.1455,38.9016 L134.0905,38.9016 C131.7285,32.4946 130.0855,29.3436 126.5955,25.9876 C120.1255,19.7846 111.1905,14.8036 99.9965,14.8036 C90.5495,14.8036 80.5885,17.7526 82.2295,25.1746 C84.0785,33.7146 123.7185,37.0706 134.4005,46.8316 C139.7405,51.7126 142.9235,58.1176 142.9235,63.3036 C142.9235,77.6396 131.5235,84.3506 111.7045,84.3506 C105.1315,84.3506 97.0195,82.3166 88.8025,79.7756 C83.5655,78.1496 80.5885,77.8426 78.0215,77.8426 C73.2955,77.8426 71.3445,79.7756 70.2145,84.2496 L68.1625,84.2496 L68.1625,52.2206 L70.2145,52.2206 C70.9335,57.9156 72.0635,61.7776 76.0685,66.4546 C79.1495,70.1156 84.3875,74.3856 88.4945,76.5226 C92.3975,78.5546 105.8505,82.3166 111.9095,82.3166 C122.0755,82.3166 132.8585,77.6396 129.2655,67.4726 C125.9785,58.1176 80.9985,53.1356 73.7065,45.8146 L73.7065,45.8146 Z" id="Fill-1" fill="#231F20"></path>
        <path d="M217.0221,37.3854 L217.0221,28.3214 L213.1711,31.6244 C214.6271,33.2344 215.9961,35.0984 217.0221,37.3854 L217.0221,37.3854 Z M216.5091,27.2184 L206.2411,27.2184 C208.5511,28.0664 210.5201,29.2524 212.3171,30.8614 L216.5091,27.2184 Z M193.4921,81.4364 C192.0381,80.4194 190.9261,79.3194 190.0701,78.0484 L186.1341,81.4364 L193.4921,81.4364 Z M184.3371,81.4364 L189.4721,77.0304 C188.7011,75.6764 188.2731,74.1504 188.2731,72.4564 L177.8351,81.4364 L184.3371,81.4364 Z M188.2731,63.8154 L188.2731,58.2254 L177.4071,67.6284 L177.4071,73.2194 L188.2731,63.8154 Z M188.2731,51.1084 L177.4071,60.5124 L177.4071,66.1024 L188.2731,56.7004 L188.2731,51.1084 Z M188.2731,43.9924 L177.4071,53.3954 L177.4071,58.9874 L188.2731,49.5844 L188.2731,43.9924 Z M177.4071,51.8714 L188.2731,42.4674 L188.2731,36.8774 L177.4071,46.2794 L177.4071,51.8714 Z M177.4071,39.1644 L177.4071,44.7554 L188.2731,35.3514 L188.2731,29.7614 L177.4071,39.1644 Z M177.4071,27.2184 L177.4071,30.5234 L181.1711,27.2184 L177.4071,27.2184 Z M188.2731,27.2184 L182.9681,27.2184 L177.4071,32.0484 L177.4071,37.6384 L188.2731,28.1504 L188.2731,27.2184 Z M188.2731,70.9314 L188.2731,65.3414 L177.3221,74.7434 C176.9791,80.4194 174.4981,80.8434 173.8981,81.4364 L176.0381,81.4364 L188.2731,70.9314 Z M152.8501,27.2184 L148.8291,27.2184 L148.8291,30.6924 L152.8501,27.2184 Z M148.8291,36.2834 C151.6541,31.6244 153.5361,28.9984 158.6691,27.2184 L154.5621,27.2184 L148.8291,32.2164 L148.8291,36.2834 Z M219.3321,47.8894 C218.3061,43.7384 216.6791,39.8414 214.4551,36.5384 C210.0921,30.1004 204.6161,27.2184 193.4071,27.2184 L193.4071,70.2554 C193.4071,76.6924 195.4611,81.4364 210.4331,81.4364 L210.4331,83.1304 L160.3811,83.1304 L160.3811,81.4364 L166.0271,81.4364 C172.9571,81.4364 175.6951,80.0804 175.6951,73.3874 L175.6951,27.2184 L171.5881,27.2184 C164.6581,27.2184 159.0121,30.1004 154.6471,36.5384 C152.4221,39.8414 150.7981,43.7384 149.7701,47.8894 C149.3431,49.6684 149.0861,51.2794 148.6581,54.6664 L147.1191,54.6664 L147.1191,25.5244 L222.1551,25.5244 L222.1551,54.6664 L220.4441,54.6664 C220.0161,51.2794 219.7601,49.6684 219.3321,47.8894 L219.3321,47.8894 Z" id="Fill-3" fill="#231F20"></path>
        <path d="M294.5593,81.4359 C294.0463,81.1829 291.6513,80.5039 289.5963,78.8959 L286.6883,81.4359 L294.5593,81.4359 Z M284.8913,81.4359 L288.7403,78.1329 C287.8853,77.3699 287.2013,76.4379 286.3453,74.5739 L278.3873,81.4359 L284.8913,81.4359 Z M272.9983,71.8639 C274.1953,74.5739 274.4523,75.4219 274.6233,76.0989 L283.4373,68.4759 L281.5533,64.4939 L272.9983,71.8639 Z M274.8803,77.3699 C274.8803,79.2329 274.7083,80.9279 272.6553,81.4359 L276.6773,81.4359 L285.8323,73.4739 L283.9503,69.5759 L274.8803,77.3699 Z M270.6013,66.7809 L272.4853,70.7629 L281.0403,63.3919 L279.1583,59.4119 L270.6013,66.7809 Z M270.0883,65.7649 L278.6443,58.3939 L276.7623,54.4119 L268.2063,61.7829 L270.0883,65.7649 Z M267.6933,60.6809 L276.2493,53.3109 L274.3673,49.3289 L265.8963,56.7009 L267.6933,60.6809 Z M263.5003,51.6169 L265.3823,55.5979 L273.8543,48.3129 L271.9703,44.3309 L263.5003,51.6169 Z M262.9873,50.5159 L271.4573,43.2309 L269.5753,39.2489 L261.1053,46.5339 L262.9873,50.5159 Z M267.1793,34.2509 L258.7083,41.5359 L260.5923,45.4339 L269.0623,38.1469 L267.1793,34.2509 Z M263.8433,27.2189 L260.9333,27.2189 L258.1953,33.3189 L264.2713,28.0659 L263.8433,27.2189 Z M256.5703,36.8769 L258.1953,40.4359 L266.6663,33.1489 L264.7843,29.1679 L256.9983,35.8599 L256.5703,36.8769 Z M267.1793,63.3069 L255.6293,38.7409 L244.3353,63.3069 L267.1793,63.3069 Z M233.7253,79.9119 C233.0403,80.4199 232.4423,80.9279 231.6713,81.4359 L240.2283,81.4359 C238.8593,79.9119 238.0033,78.0479 237.5753,76.3539 C236.4633,77.7929 235.0943,78.8099 233.7253,79.9119 L233.7253,79.9119 Z M243.5643,65.0019 L241.6823,69.3219 C240.9113,71.1009 240.7413,72.0319 240.7413,73.7269 C240.7413,76.2689 242.0253,78.9799 244.3353,80.3349 C245.7043,81.1829 246.7303,81.3519 248.9553,81.4359 L248.9553,83.1309 L225.1693,83.1309 L225.1693,81.4359 C228.6773,81.0119 230.3023,80.4199 232.6973,78.5559 C235.7783,76.1849 237.7453,73.6429 241.3393,65.7649 L259.9073,25.5239 L268.6343,25.5239 L292.0773,74.6589 C294.3893,79.4879 297.2123,81.4359 301.9173,81.4359 L303.0293,81.4359 L303.0293,83.1309 L262.3873,83.1309 L262.3873,81.4359 L266.8373,81.4359 C271.2013,81.4359 273.1683,80.4199 273.1683,77.8779 C273.1683,76.4379 272.7413,75.1669 271.5443,72.6269 L268.0353,65.0019 L243.5643,65.0019 Z" id="Fill-4" fill="#231F20"></path>
        <path d="M375.9477,37.3854 L375.9477,28.3214 L372.0967,31.6244 C373.5527,33.2344 374.9217,35.0984 375.9477,37.3854 L375.9477,37.3854 Z M375.4347,27.2184 L365.1667,27.2184 C367.4767,28.0664 369.4457,29.2524 371.2427,30.8614 L375.4347,27.2184 Z M352.4177,81.4364 C350.9637,80.4194 349.8517,79.3194 348.9957,78.0484 L345.0597,81.4364 L352.4177,81.4364 Z M343.2627,81.4364 L348.3977,77.0304 C347.6267,75.6764 347.1987,74.1504 347.1987,72.4564 L336.7607,81.4364 L343.2627,81.4364 Z M347.1987,63.8154 L347.1987,58.2254 L336.3327,67.6284 L336.3327,73.2194 L347.1987,63.8154 Z M347.1987,51.1084 L336.3327,60.5124 L336.3327,66.1024 L347.1987,56.7004 L347.1987,51.1084 Z M347.1987,43.9924 L336.3327,53.3954 L336.3327,58.9874 L347.1987,49.5844 L347.1987,43.9924 Z M336.3327,51.8714 L347.1987,42.4674 L347.1987,36.8774 L336.3327,46.2794 L336.3327,51.8714 Z M336.3327,39.1644 L336.3327,44.7554 L347.1987,35.3514 L347.1987,29.7614 L336.3327,39.1644 Z M336.3327,27.2184 L336.3327,30.5234 L340.0967,27.2184 L336.3327,27.2184 Z M347.1987,27.2184 L341.8937,27.2184 L336.3327,32.0484 L336.3327,37.6384 L347.1987,28.1504 L347.1987,27.2184 Z M347.1987,70.9314 L347.1987,65.3414 L336.2477,74.7434 C335.9047,80.4194 333.4237,80.8434 332.8237,81.4364 L334.9637,81.4364 L347.1987,70.9314 Z M311.7757,27.2184 L307.7547,27.2184 L307.7547,30.6924 L311.7757,27.2184 Z M307.7547,36.2834 C310.5797,31.6244 312.4617,28.9984 317.5947,27.2184 L313.4877,27.2184 L307.7547,32.2164 L307.7547,36.2834 Z M378.2577,47.8894 C377.2317,43.7384 375.6047,39.8414 373.3807,36.5384 C369.0177,30.1004 363.5417,27.2184 352.3327,27.2184 L352.3327,70.2554 C352.3327,76.6924 354.3867,81.4364 369.3587,81.4364 L369.3587,83.1304 L319.3067,83.1304 L319.3067,81.4364 L324.9527,81.4364 C331.8827,81.4364 334.6207,80.0804 334.6207,73.3874 L334.6207,27.2184 L330.5137,27.2184 C323.5837,27.2184 317.9377,30.1004 313.5727,36.5384 C311.3477,39.8414 309.7237,43.7384 308.6957,47.8894 C308.2687,49.6684 308.0117,51.2794 307.5837,54.6664 L306.0447,54.6664 L306.0447,25.5244 L381.0807,25.5244 L381.0807,54.6664 L379.3697,54.6664 C378.9417,51.2794 378.6857,49.6684 378.2577,47.8894 L378.2577,47.8894 Z" id="Fill-5" fill="#231F20"></path>
        <path d="M446.2138,37.301 L446.2138,31.201 L443.6468,33.488 C444.5018,34.675 445.5288,36.114 446.2138,37.301 L446.2138,37.301 Z M447.4978,81.436 L447.4978,75.337 L440.4808,81.436 L447.4978,81.436 Z M442.8778,32.556 L446.2138,29.677 L446.2138,27.219 L442.6198,27.219 L439.9688,29.592 C440.7378,30.269 441.6808,31.456 442.8778,32.556 L442.8778,32.556 Z M440.8248,27.219 L435.5198,27.219 C436.2048,27.474 437.3148,27.558 439.0258,28.829 L440.8248,27.219 Z M447.4978,73.811 L447.4978,68.813 C446.2138,71.44 443.5628,75.167 441.2528,77.116 C439.0258,78.98 436.7158,80.42 433.8078,81.436 L438.6848,81.436 L447.4978,73.811 Z M433.8908,64.918 L433.8908,57.632 L430.6418,60.428 C431.9258,62.207 432.7818,62.968 433.8908,64.918 L433.8908,64.918 Z M429.9568,59.496 L433.8908,56.107 L433.8908,50.516 L426.7068,56.701 C428.0748,57.546 429.1008,58.478 429.9568,59.496 L429.9568,59.496 Z M433.8908,48.99 L433.8908,44.586 C433.2928,45.518 432.2668,47.211 430.1268,49.584 C428.4158,51.532 423.9688,54.751 422.6858,55.006 C424.0528,55.175 425.1658,55.683 425.7648,56.022 L433.8908,48.99 Z M407.4548,81.436 L410.0218,81.436 L410.0218,79.149 L407.4548,81.436 Z M410.0218,72.456 L399.5818,81.436 L405.6588,81.436 L410.0218,77.54 L410.0218,72.456 Z M410.0218,63.815 L410.0218,58.225 L399.1538,67.628 L399.1538,73.219 L410.0218,63.815 Z M410.0218,51.108 L399.1538,60.512 L399.1538,66.103 L410.0218,56.701 L410.0218,51.108 Z M410.0218,43.992 L399.1538,53.396 L399.1538,58.988 L410.0218,49.584 L410.0218,43.992 Z M399.1538,51.871 L410.0218,42.468 L410.0218,36.877 L399.1538,46.279 L399.1538,51.871 Z M410.0218,29.761 L399.1538,39.165 L399.1538,44.755 L410.0218,35.351 L410.0218,29.761 Z M410.0218,27.219 L404.7168,27.219 L398.8998,32.303 C399.0698,33.149 399.1538,34.166 399.1538,35.351 L399.1538,37.639 L410.0218,28.151 L410.0218,27.219 Z M410.0218,70.932 L410.0218,65.341 L399.0698,74.743 C398.7258,80.42 396.2448,80.843 395.6468,81.436 L397.7858,81.436 L410.0218,70.932 Z M402.9208,27.219 L395.6468,27.219 C396.1618,27.643 397.8728,28.066 398.6418,30.946 L402.9208,27.219 Z M415.1538,55.767 L415.1538,81.436 L421.2308,81.436 C429.7858,81.436 435.5198,79.827 440.1398,75.845 C442.6198,73.727 445.0168,70.593 446.4708,67.289 C447.2398,65.595 448.1828,62.884 449.2088,59.325 L450.9208,59.325 L450.9208,83.131 L385.8068,83.131 L385.8068,81.436 L387.7738,81.436 C394.7038,81.436 397.4448,80.081 397.4448,73.388 L397.4448,36.454 C397.4448,28.659 394.7038,27.219 387.7738,27.219 L385.8068,27.219 L385.8068,25.524 L449.6368,25.524 L449.6368,47.721 L447.9258,47.721 C445.6988,40.012 444.2448,36.877 441.3358,33.404 C439.6248,31.37 437.6588,29.845 435.6028,28.998 C432.1828,27.558 427.9038,27.219 423.1128,27.219 L415.1538,27.219 L415.1538,54.074 L417.4638,54.074 C422.0868,54.074 425.5068,52.04 428.6728,48.482 C430.2138,46.789 432.0088,44.331 433.2088,41.705 C433.8908,40.265 434.3188,38.91 435.6028,36.03 L437.3148,36.03 L437.3148,73.898 L435.6028,73.898 C434.3188,70.677 433.8908,69.322 433.2088,67.882 C432.0088,65.255 430.2138,62.799 428.6728,61.105 C425.5068,57.546 422.0868,55.514 416.7818,55.767 L415.1538,55.767 Z" id="Fill-6" fill="#231F20"></path>
        <path d="M517.4175,63.3917 L511.8585,68.1367 C512.9675,69.6607 513.1415,71.1867 513.2255,72.6267 L518.0155,68.4757 C518.0155,66.7807 517.8455,64.7467 517.4175,63.3917 L517.4175,63.3917 Z M513.3125,38.4017 L513.3125,33.4877 L511.0025,35.4357 C511.8585,36.3677 512.6265,37.3857 513.3125,38.4017 L513.3125,38.4017 Z M508.2645,81.1827 C514.6795,79.0647 517.3335,75.7607 517.9325,70.0847 L513.1415,74.2347 C512.7975,76.6927 511.3435,79.2327 508.2645,81.0987 L508.2645,81.1827 Z M516.9895,62.2067 C516.3915,60.9357 515.6225,59.7487 514.6795,58.6487 L507.5785,64.7467 C509.2035,65.5947 510.3165,66.4417 511.1725,67.2887 L516.9895,62.2067 Z M513.3125,31.3697 C512.7975,31.7087 512.2855,31.8797 511.7715,32.0477 C509.2905,32.7247 508.3475,32.6407 506.8095,32.2167 C508.4345,33.0647 509.3745,33.8267 510.2295,34.6747 L513.3125,32.0477 L513.3125,31.3697 Z M513.9105,57.8007 C512.8845,56.7847 511.7715,55.9377 510.4875,55.0907 L501.8455,62.6307 C503.4705,63.1387 504.8405,63.6467 506.4655,64.2387 L513.9105,57.8007 Z M509.4615,54.4977 C508.1775,53.8197 506.7235,53.1427 505.2685,52.5487 L495.7715,60.7657 L500.6485,62.2067 L509.4615,54.4977 Z M499.2785,50.6007 L489.6095,58.9877 L494.4875,60.3437 L504.0725,52.1247 L499.2785,50.6007 Z M497.9105,50.2607 L493.0335,48.8217 L483.6225,57.3777 L488.1555,58.6487 L497.9105,50.2607 Z M486.9585,47.0417 L477.0335,55.5137 L481.9105,56.9537 L491.7495,48.3977 L486.9585,47.0417 Z M485.6755,46.6187 L480.8845,45.1787 L471.1295,53.5657 C472.3265,53.9897 473.9545,54.5827 475.7495,55.1747 L485.6755,46.6187 Z M474.8935,43.2307 L465.9945,50.8557 C466.6795,51.6167 468.2215,52.2947 469.9325,53.1427 L479.5135,44.7547 C477.3745,44.0777 476.2645,43.8237 474.8935,43.2307 L474.8935,43.2307 Z M473.6975,42.6367 C472.4965,41.9597 471.3005,41.1127 470.3605,39.9257 L462.3175,46.8737 C462.9155,47.8047 463.7715,48.9057 465.0555,50.0927 L473.6975,42.6367 Z M461.8025,79.7417 C463.1735,77.7087 466.8505,76.6087 470.4445,77.5397 C467.8765,75.8457 467.0205,75.4217 465.0555,73.0497 L461.8025,75.8457 L461.8025,79.7417 Z M464.2865,72.2027 C463.2565,70.6767 462.7455,69.4077 461.8025,67.7127 L461.8025,74.3197 L464.2865,72.2027 Z M469.5885,32.0477 C470.3605,30.2687 471.8985,28.4057 473.8675,27.6427 C465.7405,29.3367 462.4005,34.0807 461.5445,38.9937 L469.5885,32.0477 Z M468.8195,34.1667 L461.2905,40.6887 C461.2905,41.2807 460.9465,43.9077 461.8025,45.8567 L469.7625,38.9937 C469.1605,37.8937 468.8195,36.1147 468.8195,34.1667 L468.8195,34.1667 Z M464.7105,52.0397 C459.5795,46.8737 459.4925,44.7547 459.4925,40.9437 C459.4925,28.4897 473.6975,24.5077 486.7015,24.5077 C496.7135,24.5077 503.2165,28.9977 505.2685,30.1847 C507.4915,31.4557 510.4035,30.6927 511.3435,30.4377 C512.3695,30.1847 514.1685,28.9977 515.0235,26.4577 L516.7325,26.4577 L516.7325,46.2797 L515.0235,46.2797 C513.0545,40.9437 511.6845,38.3167 508.7755,35.5217 C503.3865,30.3537 495.9415,26.2027 486.6145,26.2027 C478.7455,26.2027 470.4445,28.6587 471.8145,34.8437 C473.3525,41.9597 506.3825,44.7547 515.2775,52.8877 C519.7275,56.9537 522.3815,62.2907 522.3815,66.6107 C522.3815,78.5567 512.8845,84.1467 496.3695,84.1467 C490.8935,84.1467 484.1345,82.4517 477.2905,80.3357 C472.9245,78.9797 470.4445,78.7247 468.3045,78.7247 C464.3695,78.7247 462.7455,80.3357 461.8025,84.0627 L460.0905,84.0627 L460.0905,57.3777 L461.8025,57.3777 C462.4005,62.1227 463.3435,65.3417 466.6795,69.2367 C469.2475,72.2877 473.6105,75.8457 477.0335,77.6247 C480.2865,79.3197 491.4925,82.4517 496.5405,82.4517 C505.0115,82.4517 513.9945,78.5567 511.0025,70.0847 C508.2645,62.2907 470.7885,58.1407 464.7105,52.0397 L464.7105,52.0397 Z" id="Fill-7" fill="#231F20"></path>
        <path d="M556.1068,81.4359 C554.6528,80.4199 553.5398,79.3189 552.6838,78.0479 L548.7488,81.4359 L556.1068,81.4359 Z M546.9538,81.4359 L552.0848,77.0299 C551.3158,75.6769 550.8878,74.1509 550.8878,72.4559 L540.4478,81.4359 L546.9538,81.4359 Z M550.8878,63.8149 L550.8878,58.2249 L540.0198,67.6289 L540.0198,73.2189 L550.8878,63.8149 Z M550.8878,51.1089 L540.0198,60.5119 L540.0198,66.1029 L550.8878,56.7009 L550.8878,51.1089 Z M550.8878,43.9919 L540.0198,53.3959 L540.0198,58.9879 L550.8878,49.5839 L550.8878,43.9919 Z M540.0198,51.8709 L550.8878,42.4679 L550.8878,36.8769 L540.0198,46.2789 L540.0198,51.8709 Z M540.0198,44.7549 L550.9718,35.2669 C551.4868,30.3529 554.0538,28.4899 556.1068,27.2189 L553.7968,27.2189 L540.0198,39.1649 L540.0198,44.7549 Z M540.0198,35.3509 L540.0198,37.6389 L552.0018,27.2189 L545.5828,27.2189 L539.7658,32.3029 C539.9368,33.1489 540.0198,34.1659 540.0198,35.3509 L540.0198,35.3509 Z M550.8878,70.9319 L550.8878,65.3409 L539.9368,74.7429 C539.5918,80.4199 537.1118,80.8439 536.5128,81.4359 L538.6528,81.4359 L550.8878,70.9319 Z M543.7878,27.2189 L536.5128,27.2189 C537.0278,27.6429 538.7398,28.0659 539.5088,30.9459 L543.7878,27.2189 Z M556.0198,70.2549 C556.0198,76.6929 558.0758,81.4359 568.2558,81.4359 L568.2558,83.1309 L526.6748,83.1309 L526.6748,81.4359 L528.6398,81.4359 C535.5738,81.4359 538.3118,80.0809 538.3118,73.3879 L538.3118,36.4539 C538.3118,28.6589 535.5738,27.2189 528.6398,27.2189 L526.6748,27.2189 L526.6748,25.5239 L568.2558,25.5239 L568.2558,27.2189 C557.2198,27.2189 556.0198,31.2849 556.0198,38.4019 L556.0198,70.2549 Z" id="Fill-8" fill="#231F20"></path>
        <path d="M642.9628,48.6525 C642.6188,47.0425 642.1908,45.6025 641.6788,44.1625 L630.3828,53.9035 C630.3828,55.9375 630.2988,57.8855 630.1258,59.7495 L642.9628,48.6525 Z M641.2508,42.9755 C640.6528,41.7045 639.9678,40.4355 639.1118,39.2485 L629.8718,47.2115 C630.1258,48.8215 630.2988,50.5165 630.3828,52.3795 L641.2508,42.9755 Z M635.4308,35.2675 L628.5008,41.2815 C628.9288,42.6365 629.3568,44.2465 629.7008,45.8575 L638.4258,38.3175 C637.6578,37.3005 636.4568,36.1985 635.4308,35.2675 L635.4308,35.2675 Z M643.5608,55.2595 C643.5608,53.3955 643.4738,51.6165 643.2168,49.9215 L629.9548,61.3595 C629.6138,63.8995 629.0158,66.2735 628.3298,68.3895 L643.5608,55.2595 Z M634.5748,34.5045 C633.4648,33.5725 632.2648,32.7245 630.9808,32.0485 L626.1908,36.1145 C626.8758,37.3005 627.5618,38.6565 628.0728,40.0965 L634.5748,34.5045 Z M635.3478,74.8295 C638.5968,71.7795 640.8228,68.7295 642.1068,65.1705 L624.9068,79.9965 C629.2728,78.9795 632.6928,77.2855 635.3478,74.8295 L635.3478,74.8295 Z M625.5918,35.1825 L629.9548,31.4555 C628.5878,30.6925 627.1338,30.0145 625.6788,29.5065 L623.0248,31.7935 C623.9678,32.8115 624.8238,33.9115 625.5918,35.1825 L625.5918,35.1825 Z M624.3958,29.0825 C622.1688,28.4055 619.6888,27.8975 617.0378,27.5585 C618.9198,28.4055 620.5438,29.5065 622.1688,31.0315 L624.3958,29.0825 Z M622.5128,80.5045 L642.7058,63.0545 C643.2168,61.1885 643.4738,59.0725 643.5608,56.7855 L627.3878,70.7635 C626.2778,73.2195 623.3688,78.5565 616.9508,81.2675 C618.9198,81.0985 620.8018,80.8435 622.5128,80.5045 L622.5128,80.5045 Z M621.7408,76.0145 C626.3608,71.3555 628.6708,64.0705 628.6708,53.9035 C628.6708,44.7555 626.0198,37.0465 621.2298,32.3875 C617.1208,28.4055 612.6718,27.2185 602.7458,27.2185 L602.7458,81.4355 C611.4748,81.4355 617.8058,80.0805 621.7408,76.0145 L621.7408,76.0145 Z M595.0468,81.4355 L597.6138,81.4355 L597.6138,79.1485 L595.0468,81.4355 Z M597.6138,72.4565 L587.1738,81.4355 L593.2518,81.4355 L597.6138,77.5405 L597.6138,72.4565 Z M597.6138,63.8155 L597.6138,58.2245 L586.7458,67.6285 L586.7458,73.2195 L597.6138,63.8155 Z M597.6138,51.1085 L586.7458,60.5125 L586.7458,66.1025 L597.6138,56.7005 L597.6138,51.1085 Z M597.6138,43.9925 L586.7458,53.3955 L586.7458,58.9875 L597.6138,49.5845 L597.6138,43.9925 Z M586.7458,51.8715 L597.6138,42.4675 L597.6138,36.8775 L586.7458,46.2795 L586.7458,51.8715 Z M597.6138,29.7605 L586.7458,39.1645 L586.7458,44.7555 L597.6138,35.3515 L597.6138,29.7605 Z M597.6138,27.2185 L592.3088,27.2185 L586.4918,32.3025 C586.6628,33.1485 586.7458,34.1665 586.7458,35.3515 L586.7458,37.6385 L597.6138,28.1505 L597.6138,27.2185 Z M597.6138,70.9315 L597.6138,65.3415 L586.6628,74.7435 C586.3178,80.4195 583.8378,80.8435 583.2388,81.4355 L585.3788,81.4355 L597.6138,70.9315 Z M590.5138,27.2185 L583.2388,27.2185 C583.7538,27.6425 585.4658,28.0665 586.2348,30.9455 L590.5138,27.2185 Z M573.4008,81.4355 L575.3658,81.4355 C582.2998,81.4355 585.0378,80.0805 585.0378,73.3875 L585.0378,36.4535 C585.0378,28.6585 582.2998,27.2185 575.3658,27.2185 L573.4008,27.2185 L573.4008,25.5245 L612.4168,25.5245 C635.4308,25.5245 649.1208,39.4175 649.1208,55.0905 C649.1208,71.4395 635.4308,83.1305 615.1548,83.1305 L573.4008,83.1305 L573.4008,81.4355 Z" id="Fill-9" fill="#231F20"></path>
        <path d="M715.9651,37.301 L715.9651,31.201 L713.3981,33.488 C714.2531,34.675 715.2801,36.114 715.9651,37.301 L715.9651,37.301 Z M717.2491,81.436 L717.2491,75.337 L710.2321,81.436 L717.2491,81.436 Z M712.6291,32.556 L715.9651,29.677 L715.9651,27.219 L712.3711,27.219 L709.7201,29.592 C710.4891,30.269 711.4321,31.456 712.6291,32.556 L712.6291,32.556 Z M710.5761,27.219 L705.2711,27.219 C705.9561,27.474 707.0661,27.558 708.7771,28.829 L710.5761,27.219 Z M717.2491,73.811 L717.2491,68.813 C715.9651,71.44 713.3141,75.167 711.0041,77.116 C708.7771,78.98 706.4671,80.42 703.5591,81.436 L708.4361,81.436 L717.2491,73.811 Z M703.6421,64.918 L703.6421,57.632 L700.3931,60.428 C701.6771,62.207 702.5331,62.968 703.6421,64.918 L703.6421,64.918 Z M699.7081,59.496 L703.6421,56.107 L703.6421,50.516 L696.4581,56.701 C697.8261,57.546 698.8521,58.478 699.7081,59.496 L699.7081,59.496 Z M703.6421,48.99 L703.6421,44.586 C703.0441,45.518 702.0181,47.211 699.8781,49.584 C698.1671,51.532 693.7201,54.751 692.4371,55.006 C693.8041,55.175 694.9171,55.683 695.5161,56.022 L703.6421,48.99 Z M677.2061,81.436 L679.7731,81.436 L679.7731,79.149 L677.2061,81.436 Z M679.7731,72.456 L669.3331,81.436 L675.4101,81.436 L679.7731,77.54 L679.7731,72.456 Z M679.7731,63.815 L679.7731,58.225 L668.9051,67.628 L668.9051,73.219 L679.7731,63.815 Z M679.7731,51.108 L668.9051,60.512 L668.9051,66.103 L679.7731,56.701 L679.7731,51.108 Z M679.7731,43.992 L668.9051,53.396 L668.9051,58.988 L679.7731,49.584 L679.7731,43.992 Z M668.9051,51.871 L679.7731,42.468 L679.7731,36.877 L668.9051,46.279 L668.9051,51.871 Z M679.7731,29.761 L668.9051,39.165 L668.9051,44.755 L679.7731,35.351 L679.7731,29.761 Z M679.7731,27.219 L674.4681,27.219 L668.6511,32.303 C668.8211,33.149 668.9051,34.166 668.9051,35.351 L668.9051,37.639 L679.7731,28.151 L679.7731,27.219 Z M679.7731,70.932 L679.7731,65.341 L668.8211,74.743 C668.4771,80.42 665.9961,80.843 665.3981,81.436 L667.5381,81.436 L679.7731,70.932 Z M672.6721,27.219 L665.3981,27.219 C665.9131,27.643 667.6241,28.066 668.3931,30.946 L672.6721,27.219 Z M684.9051,55.767 L684.9051,81.436 L690.9821,81.436 C699.5371,81.436 705.2711,79.827 709.8911,75.845 C712.3711,73.727 714.7681,70.593 716.2221,67.289 C716.9911,65.595 717.9341,62.884 718.9601,59.325 L720.6721,59.325 L720.6721,83.131 L655.5591,83.131 L655.5591,81.436 L657.5251,81.436 C664.4591,81.436 667.1971,80.081 667.1971,73.388 L667.1971,36.454 C667.1971,28.659 664.4591,27.219 657.5251,27.219 L655.5591,27.219 L655.5591,25.524 L719.3881,25.524 L719.3881,47.721 L717.6771,47.721 C715.4501,40.012 713.9961,36.877 711.0871,33.404 C709.3761,31.37 707.4101,29.845 705.3541,28.998 C701.9341,27.558 697.6551,27.219 692.8641,27.219 L684.9051,27.219 L684.9051,54.074 L687.2151,54.074 C691.8381,54.074 695.2581,52.04 698.4241,48.482 C699.9651,46.789 701.7601,44.331 702.9611,41.705 C703.6421,40.265 704.0701,38.91 705.3541,36.03 L707.0661,36.03 L707.0661,73.898 L705.3541,73.898 C704.0701,70.677 703.6421,69.322 702.9611,67.882 C701.7601,65.255 699.9651,62.799 698.4241,61.105 C695.2581,57.546 691.8381,55.514 686.5331,55.767 L684.9051,55.767 Z" id="Fill-10" fill="#231F20"></path>
    </g>
</svg>