<?xml version="1.0" encoding="UTF-8"?>
<svg width="699px" height="796px" viewBox="0 0 699 796" version="1.1" xmlns="http://www.w3.org/2000/svg" xmlns:xlink="http://www.w3.org/1999/xlink">
    <title>Combined Shape</title>
    <g id="Page-1" stroke="none" stroke-width="1" fill="none" fill-rule="evenodd">
        <path d="M239.115474,0.319254665 C290.583683,0.0239294362 362.798022,3.23988231 455.758489,9.96711328 C465.057814,10.3159466 470.713128,11.6764506 472.724431,14.0486254 C474.735733,16.4208002 476.139755,20.6086924 476.936496,26.6123019 L476.936496,26.6123019 L476.936496,90.9143996 C477.133543,95.343675 478.516757,98.8885838 481.086141,101.549126 C483.655524,104.209668 488.373013,106.98191 495.238609,109.865851 C535.789662,110.978392 564.447348,113.389515 581.211669,117.099221 C597.975989,120.808926 614.154576,128.319431 629.74743,139.630735 C656.934307,160.033202 675.341722,184.602031 684.969675,213.337225 C692.41952,235.571726 695.539661,267.443224 697.018054,308.221075 C697.450291,320.143281 713.096422,454.390091 629.74743,546.484309 C571.144559,617.452983 508.257168,649.974857 470.885198,657.038011 C463.064357,660.126546 461.192766,663.355409 460.633909,664.058125 C458.910403,666.225289 457.285263,669.636444 455.758489,674.291589 L455.758489,674.291589 L446.981778,731.607221 C443.405895,742.282522 439.921356,749.76965 436.52816,754.068606 C433.134964,758.367561 426.7168,763.426506 417.273666,769.245442 C367.764442,786.44277 308.378378,795.243421 239.115474,795.647395 C155.400025,796.626212 94.6494266,787.825561 56.8636776,769.245442 C50.1724224,765.580628 45.7083461,762.514961 43.4714486,760.048442 C41.234551,757.581923 40.038483,754.40642 39.8832446,750.521934 C19.6922732,660.678006 7.38462659,600.757152 2.96030483,570.759372 C1.04567081,530.224465 0.527972778,509.728291 0.510786901,487.364797 L0.511069683,484.670812 C0.531633667,463.0248 0.980423881,438.850322 1.06434188,392.766303 C0.689773943,275.889939 1.68087476,153.838605 4.03764434,26.6123019 C5.44774799,21.7425227 6.86974235,18.4673677 8.30362743,16.7868369 C9.7375125,15.106306 12.3320717,13.6740111 16.087305,12.489952 C113.304542,4.67147902 187.647265,0.614579893 239.115474,0.319254665 Z M497.098628,169.446587 C489.309814,169.750365 484.156978,172.080907 481.640122,176.438216 C476.210708,190.211598 478.645165,267.271905 480.796488,346.606355 L480.942635,352.01833 C481.185163,361.041773 481.421643,370.076678 481.640122,379.033511 C483.552604,457.438404 483.351493,529.862713 483.513317,536.229105 C483.860006,549.868349 486.831199,551.625479 491.308342,556.799609 C495.495953,562.520341 501.391286,565.86504 508.99434,566.833706 C529.746829,566.833706 558.151929,540.069282 594.209639,486.540433 C604.571734,467.299483 622.686044,437.41064 629.796971,409.192294 C650.761416,325.998923 645.55868,221.063308 612.225013,194.526258 C593.020531,175.076184 554.64507,166.716293 497.098628,169.446587 Z" id="Combined-Shape" fill="#000000"></path>
    </g>
</svg>