<?xml version="1.0" encoding="UTF-8"?>
<svg width="1472px" height="617px" viewBox="0 0 1472 617" version="1.1" xmlns="http://www.w3.org/2000/svg" xmlns:xlink="http://www.w3.org/1999/xlink">
    <title>surfside</title>
    <g id="surfside" stroke="none" stroke-width="1" fill="none" fill-rule="evenodd">
        <path d="M420.316,165.5099 C405.67,204.1689 355.875,226.2849 325.352,195.7219 C311.83,182.1399 331.893,160.0429 345.801,173.6249 C362.802,190.6049 391.747,167.6479 395.983,147.6849 C400.215,127.7179 395.18,104.3629 381.657,89.5049 C344.951,49.6039 273.143,61.9659 258.505,120.5899 C245.026,174.1139 271.31,219.9699 297.981,262.4219 C322.718,301.4849 350.928,342.2369 357.136,390.6549 C363.344,438.6429 339.434,485.3799 302.382,510.0369 C229.054,558.0799 90.438,562.8369 45.203,466.8769 C23.549,420.5969 23.9,365.3819 52.448,322.4659 C83.693,275.7239 137.751,275.2649 182.936,292.6509 C200.316,299.0129 192.614,329.5949 175.234,322.8129 C147.81,312.2129 115.759,305.0099 90.288,325.4159 C66.36,344.1159 55.183,377.6789 58.294,409.1079 C64.899,474.5119 116.659,508.4549 172.261,510.5439 C222.071,512.2119 288.478,502.4029 317.02,451.4139 C368.7,359.2159 247.403,272.2259 230.363,187.7139 C220.679,140.5729 227.981,87.4779 265.805,57.2969 C299.378,30.5179 351.498,23.6919 386.269,52.9769 C417.946,78.8649 436.508,123.4509 420.316,165.5099" id="Fill-260" fill="#000000"></path>
        <path d="M460.6289,437.3113 C457.1509,428.8163 455.5989,422.0233 446.7239,428.3983 C441.3199,432.2253 437.0759,438.1713 432.0579,442.4233 C423.9549,449.2263 414.6939,454.7513 404.2679,455.6073 C393.4559,456.4643 384.5739,451.7963 378.7769,442.8823 C369.8849,429.7213 368.7139,408.4873 375.6489,385.1193 C386.8229,346.0383 411.8909,300.1543 442.7569,263.1803 C445.4599,259.7833 448.5459,258.080298 452.0229,258.080298 C456.6529,258.0773 461.6759,261.8933 464.3839,267.4153 C467.0889,273.3613 466.3209,279.7303 462.4619,285.2563 C426.2039,337.0953 393.4209,401.2493 404.6299,417.8073 C405.7889,419.5063 407.7229,420.7793 409.6519,420.7783 C429.3429,420.7653 489.9099,334.5063 516.5209,287.7673 L518.4479,284.3713 C521.1499,279.2713 525.0089,272.4753 526.9359,269.4993 C529.6339,264.8243 533.4959,263.9723 536.5829,263.9703 C542.3749,263.9663 547.7839,267.3623 550.4919,272.4593 C551.6509,275.0033 552.8119,279.6763 549.7279,285.2013 C548.5679,286.9013 546.2559,291.5723 543.5579,296.6723 C539.6999,304.3173 534.6849,313.6683 532.7579,316.2143 C524.6599,330.2353 491.1029,390.5703 488.0279,408.4123 C486.8689,413.9313 487.6479,418.1793 489.5789,421.1523 C491.1229,422.8513 493.4399,424.5443 496.1449,424.1183 C524.3259,419.4313 540.1399,390.5393 570.6149,344.6473 C580.6459,329.3503 601.5059,348.0263 591.4769,365.4483 C541.7229,453.3963 503.8879,459.7933 493.0759,459.800307 C476.8619,459.8103 465.6559,448.3503 460.6289,437.3113" id="Fill-262" fill="#000000"></path>
        <path d="M730.4646,346.2456 C732.7776,342.4206 735.8666,339.8736 740.1106,339.8706 C748.2226,339.8656 754.4056,347.9296 754.410604,356.4226 C754.4136,360.6716 752.8686,364.9216 750.5556,368.3216 C730.4986,400.6106 697.3296,455.4226 657.9426,455.446609 C635.5506,455.4616 622.7916,435.9346 622.7776,412.9956 C622.7526,373.9216 671.7546,318.2506 671.7456,302.9596 C671.7436,300.4146 670.5856,299.1406 668.2706,299.1426 C666.3366,299.1436 643.1786,308.9256 637.0016,310.2046 C634.2976,311.0556 631.5966,311.4826 628.8916,312.3336 C619.2436,315.3096 611.1456,330.1806 606.1306,339.1056 C599.5746,350.5766 593.7896,362.0476 586.4606,372.6696 C582.9876,378.1946 578.7406,382.0216 572.5636,382.0256 C564.8416,382.0306 559.0466,377.3606 559.041591,368.8676 C559.0386,364.6186 559.8086,360.7946 561.7396,357.3946 C570.2236,342.5236 594.5256,305.5576 594.5146,288.5676 C594.5126,284.7476 593.7406,284.7486 592.5816,281.7746 C589.8716,274.9786 587.5506,265.2126 587.5456,257.9946 C587.5406,249.0726 593.3256,238.0266 602.2036,238.020598 C606.0666,238.020598 609.1546,239.7156 611.4756,242.6886 C620.3616,252.8756 622.2976,263.4916 623.8536,276.6566 C624.2416,280.4806 627.3286,280.9036 630.0336,280.9016 C646.6336,280.8906 662.4546,262.1916 680.9886,262.1796 C695.6596,262.1706 706.0946,276.6046 706.1046,291.8956 C706.1116,302.5126 702.2556,313.5616 697.2456,322.4826 C688.3726,338.6286 679.1176,353.9256 670.2446,370.0676 C663.6876,381.9676 652.8856,397.6856 652.8946,412.1266 C652.8986,418.0756 655.2226,425.2916 661.7866,425.2876 C682.2486,425.2746 720.4346,362.8176 730.4646,346.2456" id="Fill-263" fill="#000000"></path>
        <path d="M728.2192,470.2686 C734.0022,456.2486 738.2422,441.8046 740.1612,426.5126 C741.3152,419.7186 741.6962,412.4956 741.6922,405.7026 C742.0762,402.7276 742.4572,395.5096 738.5982,395.0866 C735.5072,394.6636 732.4232,399.3356 731.2672,401.4606 C727.4092,409.1106 722.7792,416.7566 718.5392,424.4026 C707.3542,445.2236 696.1702,466.4646 686.5292,488.1346 C682.6752,496.6306 678.4322,505.5506 675.7372,514.8996 C674.5782,518.7236 671.4962,525.9446 673.8132,530.1916 C674.2002,531.4656 675.7482,532.309601 676.9062,532.309601 C679.6072,532.3076 683.4682,530.1856 688.8722,525.5086 C705.8532,511.0566 719.3542,491.9336 728.2192,470.2686 M774.5172,409.0806 C769.8832,410.3536 769.8882,418.4256 769.1202,423.5206 C768.3532,431.5936 767.1972,440.5116 765.6572,446.4616 C761.8102,464.7246 754.8672,481.2936 746.3842,497.4396 C744.8422,500.4146 743.6872,502.9646 741.7552,505.9356 C723.6272,537.8036 687.3532,570.9566 657.6252,570.975609 C652.2192,570.975609 647.1982,569.7076 642.5622,567.1616 C640.2462,565.8886 638.7012,563.7656 637.9232,560.3666 C635.2152,549.7506 639.0702,536.5826 642.1502,526.3876 C649.4702,501.3246 660.6532,477.5336 671.8362,454.1636 C679.9332,438.0176 688.0352,422.3016 696.5182,406.5806 L711.1722,379.8136 C713.8742,375.1386 716.5722,370.4626 719.2742,365.7926 C721.2012,362.3916 723.5142,359.4166 721.1972,355.1736 C719.6522,352.6256 718.1072,350.5026 716.9432,347.5286 C715.0112,343.2816 715.0082,338.1876 716.5492,333.5126 C718.4782,327.5676 723.4922,323.7406 729.2842,323.7376 C733.1472,323.7346 737.3962,324.5816 740.8682,323.3046 C744.7292,321.6036 746.6562,317.3536 748.5832,313.5326 L768.2542,275.7156 C785.6062,243.4286 802.9612,210.2866 821.8602,178.4226 C824.5632,173.7476 828.8052,171.192596 833.4402,171.192596 C839.2322,171.192596 844.6402,174.5846 847.3442,179.6766 C849.2812,184.3486 848.8982,189.4476 846.1962,194.1186 C826.9112,226.8366 808.3992,261.2496 790.6592,294.8166 C783.7172,307.1376 776.7752,319.4586 770.2192,332.2046 C763.6642,345.7996 764.0612,362.7896 772.9442,370.0026 C777.5812,373.3986 783.7602,375.0946 791.0952,375.0896 C804.9992,375.0806 823.9132,366.5756 836.6412,345.7536 C845.1252,331.3076 867.9182,347.8586 859.8162,363.1546 C837.0642,404.7926 799.9992,408.2146 789.1872,408.2216 C783.3952,408.2256 777.6032,408.2286 774.5172,409.0806" id="Fill-264" fill="#000000"></path>
        <path d="M980.5986,259.0206 C986.7806,265.8106 986.7856,273.8826 984.4746,279.4026 C982.5446,284.9276 978.3016,288.3246 973.6676,288.3276 C970.9626,288.3296 968.2606,287.0606 965.5576,284.0886 C958.9856,277.2946 951.6476,273.4796 944.3126,273.4846 C938.1346,273.4886 932.7296,276.0366 928.8746,281.1376 C919.2276,293.8856 925.0346,317.2406 932.7656,332.9516 C944.7506,357.1526 968.7286,417.4506 926.2746,447.6346 C916.6286,454.4336 905.0466,457.8396 891.9186,457.4236 C852.1446,455.3246 832.0506,428.1546 826.2426,403.5246 C819.2736,372.5226 831.9956,341.0876 857.4686,324.9306 C859.3966,323.2306 861.7156,322.8036 863.6446,322.8026 C870.9806,322.7976 876.7776,330.4376 878.3256,338.0836 C880.2636,345.7266 877.5626,352.1006 871.7726,355.5036 C857.8786,363.5806 850.5526,378.8756 852.8786,395.8646 C855.2096,413.6986 867.5736,427.2826 883.7906,430.6706 C886.1096,431.0946 888.0386,431.0926 889.9686,431.0916 C906.9586,431.0806 919.6916,417.9066 922.7696,397.0906 C925.0756,382.6526 916.5706,363.5436 909.9966,347.8316 C908.0606,343.5846 906.1286,339.3406 904.9696,335.9426 C897.2306,315.5586 883.6866,266.7246 924.2186,247.1596 C926.9186,245.4636 933.4806,243.7596 942.3646,243.753591 C951.2426,243.7486 968.2346,245.8616 980.5986,259.0206" id="Fill-265" fill="#000000"></path>
        <path d="M1074.402,230.0791 C1073.635,237.2981 1068.619,244.5241 1060.898,244.5291 C1059.736,244.5291 1058.192,244.1051 1057.421,244.1061 C1056.263,243.6821 1055.105,243.2581 1054.333,243.2581 L1052.786,243.2591 C1043.521,243.2651 1039.267,235.1951 1039.262,227.5521 C1039.257,219.9041 1043.501,212.2591 1052.766,212.253084 C1057.015,212.2501 1060.878,212.6721 1064.351,213.9451 C1072.845,216.0641 1075.17,223.7061 1074.402,230.0791 M1022.685,270.4611 C1034.257,250.9141 1058.21,272.5631 1047.024,292.1051 C1036.998,308.6771 998.8097,372.8341 994.1927,394.5001 C992.2647,402.9951 992.2697,411.0631 995.3637,415.3091 C996.9087,417.8581 999.2287,419.1311 1002.316,419.1291 C1007.722,419.1251 1019.309,423.3621 1067.139,345.1831 C1076.395,330.3111 1101.886,343.8861 1086.845,368.5341 C1075.659,386.8011 1038.626,442.4651 1010.83,452.6751 C1005.816,454.8021 1000.796,455.6551 996.1607,455.658107 C983.4197,455.6661 973.3737,448.4541 966.4157,434.0171 C954.4297,409.3911 964.4517,380.0781 971.3917,364.7831 C984.5017,335.8921 1003.015,304.0251 1022.685,270.4611" id="Fill-266" fill="#000000"></path>
        <path d="M1182.952,321.3261 C1182.947,313.6831 1176.765,306.4641 1171.742,302.2191 C1166.332,297.5531 1159.381,294.1581 1152.431,294.163094 C1149.34,294.1651 1146.254,294.5911 1143.549,295.8681 C1130.425,300.5491 1120.783,314.5671 1112.293,326.4691 L1110.751,328.5901 C1097.636,347.2881 1092.238,360.4581 1086.073,381.2761 C1083.378,390.6201 1083,409.3101 1088.798,419.9241 C1091.507,424.5911 1094.981,427.1381 1099.23,427.5601 C1100.002,427.9841 1101.159,427.9841 1101.935,427.9841 C1111.972,427.9771 1120.849,419.0541 1128.18,411.8271 L1129.722,410.1261 C1136.282,403.7531 1141.297,395.6821 1146.313,388.0311 C1155.183,375.2841 1163.286,361.6881 1171.77,347.6661 C1176.015,340.8701 1182.959,331.9431 1182.953,323.0251 C1183.339,322.6001 1183.338,321.7511 1182.952,321.3261 M1306.029,171.3191 C1300.628,179.3901 1286.355,205.3121 1267.843,238.8751 C1247.788,274.9881 1223.106,320.4511 1199.962,359.1151 C1189.165,376.1121 1179.524,398.2031 1184.936,408.8211 C1187.641,414.3381 1193.434,416.0341 1202.702,414.3291 C1220.462,410.9181 1240.902,375.6551 1260.574,345.4861 C1264.048,340.3891 1267.906,338.6871 1270.611,338.6861 C1275.631,338.6831 1281.04,342.4991 1283.744,347.5951 C1285.289,350.5681 1286.451,356.9361 1282.597,364.1611 C1238.241,438.9401 1211.223,459.3461 1178.013,450.0241 C1173.377,448.3281 1169.513,445.3561 1166.038,441.5341 C1163.721,438.9871 1161.399,434.7441 1158.311,433.4711 C1152.518,431.7751 1146.345,438.5731 1142.484,441.9741 C1122.803,457.7021 1108.905,459.8351 1102.341,459.8421 L1098.864,459.8421 C1085.735,457.7261 1074.532,449.6651 1066.417,436.5031 C1055.593,419.0951 1051.329,394.8891 1055.951,374.0721 C1062.11,344.7611 1104.916,260.2121 1153.181,260.1821 L1157.04,260.1791 C1166.309,261.0231 1175.581,264.4161 1183.692,270.3591 C1187.551,272.9061 1191.031,276.2981 1194.51,280.1201 C1197.213,283.0921 1199.529,285.2151 1203.777,284.3631 C1211.112,283.5081 1214.969,274.1591 1218.438,268.2131 C1221.911,262.2621 1225.384,255.8921 1228.853,249.5161 C1236.18,236.3451 1243.507,223.1741 1251.224,210.4281 C1268.967,178.9851 1282.85,153.9181 1286.32,149.2471 C1289.022,145.4211 1292.108,143.718098 1295.585,143.718098 C1300.219,143.718098 1305.238,147.5351 1307.947,153.4771 C1310.652,159.8491 1309.884,166.218098 1306.029,171.3191" id="Fill-267" fill="#000000"></path>
        <path d="M1302.259,333.1426 C1302.268,346.7336 1323.502,345.8706 1331.609,345.8656 C1342.035,345.8586 1350.14,342.0306 1355.927,334.8086 C1362.871,325.8856 1369.04,311.8656 1364.788,298.2776 C1362.076,288.9316 1357.053,284.2656 1350.489,284.269597 C1338.519,284.2776 1327.333,296.6016 1319.999,305.5236 C1314.987,311.0506 1310.742,316.9966 1306.111,322.9476 C1304.184,325.9226 1302.257,329.7436 1302.259,333.1426 M1442.822,363.2106 C1427.783,391.2526 1406.177,420.9976 1380.319,439.2746 C1358.323,455.4296 1333.614,458.8436 1320.486,458.851624 C1267.201,458.8856 1252.502,422.3696 1250.174,401.9816 C1244.741,359.9366 1273.667,305.5536 1304.539,277.5016 C1323.448,260.4986 1338.885,251.9966 1352.403,251.987594 C1358.58,251.9836 1364.374,254.1046 1369.782,257.4996 C1391.412,272.3526 1394.904,296.5586 1393.754,314.3946 C1391.471,365.3676 1353.637,373.0346 1331.24,373.0486 C1320.818,373.0556 1310.391,371.7876 1300.348,368.8196 C1294.555,367.5526 1288.762,365.0076 1284.135,370.5296 C1280.661,375.2046 1278.737,384.1236 1279.127,389.6466 C1279.517,396.8646 1281.064,403.2366 1285.704,411.7266 C1290.344,419.7966 1303.862,427.8566 1323.939,427.8436 C1340.158,427.8336 1356.753,419.3296 1360.228,417.6276 C1376.44,407.0006 1396.504,386.5986 1420.033,346.2346 C1423.502,340.2886 1426.978,339.0116 1430.065,339.0096 C1435.085,339.0066 1440.493,342.3976 1443.198,347.4946 C1445.52,352.5916 1445.524,358.1106 1442.822,363.2106" id="Fill-268" fill="#000000"></path>
    </g>
</svg>