<?xml version="1.0" encoding="UTF-8"?>
<svg width="487px" height="416px" viewBox="0 0 487 416" version="1.1" xmlns="http://www.w3.org/2000/svg" xmlns:xlink="http://www.w3.org/1999/xlink">
    <title>Untitled 5</title>
    <g id="Page-1" stroke="none" stroke-width="1" fill="none" fill-rule="evenodd">
        <g id="certified-gluten-free-logo-vector" fill="#000000" fill-rule="nonzero">
            <g id="Group">
                <path d="M51.3,369.5 C46.6,366.9 41.5,365.5 36.1,365.5 C23.5,365.5 15.8,373 15.8,385 C15.8,396.7 22.8,404 33.7,404 C35.8,404 37.8,403.8 39.7,403.3 L39.7,391.3 L30.8,391.3 L30.8,380.5 L53.9,380.5 L53.9,412.5 C48,414.2 41.5,415.1 34.4,415.1 C12,415.1 0.2,404.8 0.2,385.5 C0.2,366.2 12.5,354.9 33.8,354.9 C40.3,354.9 46.6,355.9 52.6,357.7 L51.3,369.5 Z" id="Path"></path>
                <rect id="Rectangle" x="64.8" y="351.6" width="14.6" height="62.1"></rect>
                <path d="M104.3,371.1 L104.3,392.5 C104.3,399.2 106.6,402.4 111.5,402.4 C116.9,402.4 119.9,398 119.9,389.2 L119.9,371 L134.5,371 L134.5,413.5 L121.2,413.5 L121.2,405.6 C117.9,411.2 112.5,414.3 105.8,414.3 C95.5,414.3 89.7,407.9 89.7,395.5 L89.7,371 L104.3,371 L104.3,371.1 Z" id="Path"></path>
                <path d="M164,371.1 L174.4,371.1 L174.4,381.6 L164,381.6 L164,396.2 C164,402.4 165.7,404.8 170.8,404.8 C171.6,404.8 172.8,404.6 174.4,404.1 L174.6,413.6 C171.4,414.3 168.5,414.7 165.7,414.7 C153.9,414.7 149.3,409.2 149.3,396.6 L149.3,381.5 L141.1,381.5 L141.1,371 L150.1,371 L150.1,361.2 L163.8,356.6 L163.8,371.1 L164,371.1 Z" id="Path"></path>
                <path d="M224,396.7 L194.1,396.7 C194.7,402.2 199,405.4 206.2,405.4 C210.5,405.4 215.3,404.2 220.3,401.8 L220.3,412.2 C215.5,413.9 210.4,414.8 204.8,414.8 C189.2,414.8 180,406 180,391.6 C180,378.3 188.7,369.9 202.3,369.9 C216.1,369.9 223.9,378.3 223.9,393.1 L223.9,396.7 L224,396.7 Z M202.4,378.9 C197.9,378.9 194.5,382.2 193.9,388.1 L211,388.1 C210.5,382.2 207.1,378.9 202.4,378.9" id="Shape"></path>
                <path d="M276.4,413.7 L262,413.7 L262,391.9 C262,385.2 259.7,382 254.8,382 C250,382 246.4,386.1 246.4,393.3 L246.4,413.7 L231.8,413.7 L231.8,371.2 L245,371.2 L245,378.8 C248.3,373.2 253.7,370 260.4,370 C270.7,370 276.4,376.5 276.4,388.8 L276.4,413.7 Z" id="Path"></path>
                <rect id="Rectangle" x="284.1" y="384.2" width="22.1" height="10.9"></rect>
                <polygon id="Path" points="352.6 356.2 352.6 367.1 330.2 367.1 330.2 379.4 351.6 379.4 351.6 390.3 330.2 390.3 330.2 413.7 314.8 413.7 314.8 356.2"></polygon>
                <path d="M389,383 C387.6,382.4 386.1,382.3 384.5,382.3 C377.6,382.3 374,386.8 374,395.5 L374,413.6 L359.4,413.6 L359.4,371.1 L372.4,371.1 L372.4,379.2 C375.4,372.9 379.5,369.9 385.4,369.9 C386.6,369.9 388.1,370.1 389.8,370.4 L389,383 Z" id="Path"></path>
                <path d="M437,396.7 L407.1,396.7 C407.7,402.2 412,405.4 419.2,405.4 C423.5,405.4 428.3,404.2 433.3,401.8 L433.3,412.2 C428.5,413.9 423.4,414.8 417.8,414.8 C402.2,414.8 393,406 393,391.6 C393,378.3 401.7,369.9 415.3,369.9 C429.1,369.9 436.9,378.3 436.9,393.1 L436.9,396.7 L437,396.7 Z M415.5,378.9 C411,378.9 407.6,382.2 407,388.1 L424.1,388.1 C423.5,382.2 420.1,378.9 415.5,378.9" id="Shape"></path>
                <path d="M486.3,396.7 L456.4,396.7 C457,402.2 461.3,405.4 468.5,405.4 C472.8,405.4 477.6,404.2 482.6,401.8 L482.6,412.2 C477.8,413.9 472.7,414.8 467.1,414.8 C451.5,414.8 442.3,406 442.3,391.6 C442.3,378.3 451,369.9 464.6,369.9 C478.4,369.9 486.2,378.3 486.2,393.1 L486.2,396.7 L486.3,396.7 Z M464.8,378.9 C460.3,378.9 456.9,382.2 456.3,388.1 L473.4,388.1 C472.8,382.2 469.4,378.9 464.8,378.9" id="Shape"></path>
                <path d="M242.4,0.1 C147.6,0.1 70.8,76.9 70.8,171.7 C70.8,266.5 147.6,343.3 242.4,343.3 C337.2,343.3 414,266.5 414,171.7 C414,76.9 337.2,0.1 242.4,0.1 M242.4,314.1 C164.1,314.1 100.6,250.6 100.6,172.3 C100.6,94 164.1,30.5 242.4,30.5 C320.7,30.5 384.2,94 384.2,172.3 C384.2,250.7 320.7,314.1 242.4,314.1" id="Shape"></path>
                <path d="M234.4,143.4 C225.7,138.5 216.3,136.1 206.4,136.1 C183.3,136.1 169.1,149.8 169.1,171.9 C169.1,193.4 182,206.7 202,206.7 C205.8,206.7 209.5,206.4 213,205.5 L213,183.4 L196.7,183.4 L196.7,163.5 L239.1,163.5 L239.1,222.4 C228.3,225.4 216.3,227.1 203.3,227.1 C162.1,227.1 140.5,208.1 140.5,172.6 C140.5,137.1 163.2,116.3 202.3,116.3 C214.3,116.3 225.9,118.1 236.8,121.5 L234.4,143.4 Z" id="Path"></path>
                <polygon id="Path" points="328.5 119.1 328.5 139.2 287.3 139.2 287.3 161.7 326.7 161.7 326.7 181.8 287.3 181.8 287.3 224.7 259 224.7 259 119.1"></polygon>
            </g>
        </g>
    </g>
</svg>