<?xml version="1.0" standalone="no"?>
<!DOCTYPE svg PUBLIC "-//W3C//DTD SVG 20010904//EN"
 "http://www.w3.org/TR/2001/REC-SVG-20010904/DTD/svg10.dtd">
<svg version="1.0" xmlns="http://www.w3.org/2000/svg"
 width="535.000000pt" height="535.000000pt" viewBox="0 0 535.000000 535.000000"
 preserveAspectRatio="xMidYMid meet">
<metadata>
Created by potrace 1.14, written by Peter Selinger 2001-2017
</metadata>
<g transform="translate(0.000000,535.000000) scale(0.100000,-0.100000)"
fill="#000000" stroke="none">
<path d="M4065 5238 c-2 -7 -6 -33 -9 -58 -3 -25 -13 -50 -21 -56 -20 -15 -45
-77 -45 -111 l0 -28 -28 30 c-15 17 -37 43 -50 59 -12 16 -22 26 -22 23 0 -9
83 -131 94 -139 6 -4 7 -8 3 -8 -5 0 1 -12 12 -27 26 -32 22 -37 -14 -23 -16
6 -54 10 -86 9 -51 -2 -62 1 -101 32 -23 18 -47 39 -51 46 -4 7 -18 18 -30 24
-21 11 -21 11 -6 -7 84 -100 119 -147 119 -160 0 -32 58 -107 100 -129 26 -13
126 -14 170 -1 23 6 28 3 47 -38 11 -26 20 -46 19 -46 0 1 -23 7 -51 14 -57
15 -129 3 -187 -31 -30 -18 -39 -19 -74 -8 -107 32 -148 71 -148 144 0 25 3
62 7 81 4 23 -1 14 -17 -25 -46 -115 -3 -192 139 -249 31 -13 64 -35 76 -52
104 -137 208 -182 328 -142 30 10 55 17 56 16 11 -13 55 -111 52 -115 -3 -2
-18 2 -35 11 -29 15 -54 15 -234 2 -25 -2 -75 2 -110 8 -119 23 -201 76 -243
159 -24 47 -26 48 -20 17 21 -103 107 -187 245 -239 30 -12 63 -21 72 -21 10
0 35 -26 57 -59 50 -74 100 -115 157 -131 50 -14 136 -7 187 15 10 4 19 6 21
4 7 -9 59 -168 71 -217 7 -29 9 -55 4 -58 -5 -3 -9 2 -9 12 0 23 -95 110 -149
136 -57 28 -118 30 -218 8 -96 -21 -150 -18 -208 11 -46 23 -117 90 -172 162
-55 72 -54 51 2 -42 30 -50 92 -126 134 -163 34 -31 54 -60 71 -103 23 -60 56
-128 75 -153 41 -56 104 -114 143 -133 51 -24 155 -39 193 -28 13 3 59 17 101
29 43 13 81 20 85 16 13 -12 11 -334 -2 -411 -9 -58 -13 -66 -19 -45 -38 120
-115 212 -225 269 -45 23 -83 42 -86 41 -3 0 -6 0 -7 1 -14 4 -53 10 -98 14
-30 4 -66 8 -79 11 -41 9 -132 113 -184 210 -77 144 -30 -23 52 -185 28 -55
52 -110 55 -123 15 -76 63 -213 98 -280 46 -90 144 -198 179 -198 5 0 23 -7
38 -15 16 -8 62 -20 103 -26 40 -7 74 -13 75 -13 5 -3 -26 -95 -41 -125 -9
-17 -27 -47 -41 -67 -21 -31 -26 -34 -31 -18 -23 73 -62 129 -126 179 -20 17
-111 54 -146 60 l-31 5 20 -44 c40 -92 54 -253 29 -347 -29 -110 -120 -209
-325 -355 -81 -58 -340 -214 -355 -214 -6 0 -10 -4 -10 -8 0 -4 -19 -18 -42
-30 -54 -28 -67 -36 -154 -98 -238 -173 -315 -298 -339 -555 -3 -29 -8 -74
-11 -99 -3 -25 -7 -269 -11 -542 l-6 -498 66 0 66 0 -6 118 c-8 128 -7 602 0
722 3 41 6 83 6 93 1 16 8 14 49 -16 60 -44 102 -65 165 -84 52 -15 176 -20
237 -9 169 31 313 133 380 269 31 64 34 67 69 68 20 0 44 2 53 4 18 3 111 13
193 21 28 2 61 6 74 9 13 2 56 7 95 11 39 4 78 8 86 10 8 1 28 3 44 3 16 1 27
4 24 7 -6 6 -42 7 -403 19 -200 6 -217 9 -256 47 -25 24 -133 104 -169 124
-104 59 -150 69 -332 69 -157 0 -153 -2 -106 47 24 24 124 91 174 116 l41 21
59 -45 c67 -51 174 -105 254 -129 68 -21 224 -28 288 -15 141 31 289 115 406
232 71 71 109 91 196 104 19 3 49 9 65 14 17 5 41 11 55 14 14 2 66 14 115 26
96 23 111 26 164 35 60 11 81 24 31 20 -25 -2 -81 -7 -125 -10 -44 -3 -102 -7
-130 -10 -27 -2 -84 -7 -125 -10 -41 -3 -97 -8 -124 -11 -45 -4 -61 1 -185 62
-146 72 -248 113 -287 116 -13 1 -24 5 -24 8 0 10 113 80 129 80 9 0 28 -6 43
-14 61 -32 128 -47 227 -51 128 -4 230 34 318 121 90 89 138 213 147 376 1 25
43 64 236 218 39 31 91 74 158 130 30 25 20 26 -16 1 -49 -34 -171 -111 -176
-111 -2 0 -54 -31 -115 -70 -99 -62 -118 -70 -174 -75 -114 -10 -172 -16 -189
-21 -9 -3 -26 -7 -38 -9 -12 -2 -30 -7 -41 -10 -17 -6 -17 -2 6 47 14 29 33
84 42 121 15 56 21 67 35 63 10 -2 21 0 24 5 3 5 9 7 14 4 14 -8 89 15 130 41
88 54 153 153 186 284 23 91 24 100 29 247 3 115 7 138 29 187 14 31 38 82 52
114 14 31 42 89 61 127 19 39 39 81 44 95 9 24 8 24 -6 5 -8 -11 -19 -25 -25
-32 -5 -7 -10 -14 -10 -17 0 -2 -34 -59 -75 -126 -41 -67 -75 -124 -75 -126 0
-19 -58 -75 -125 -122 -44 -31 -113 -89 -152 -129 l-73 -74 -1 33 c-4 82 -7
118 -12 132 -4 11 9 26 41 48 88 60 140 136 163 236 10 47 13 211 4 252 -3 14
-8 45 -11 69 -3 25 -7 48 -10 53 -3 4 0 27 7 50 16 62 19 77 26 133 13 104 4
303 -16 358 -5 12 -7 -30 -6 -98 3 -137 -5 -210 -35 -325 -11 -39 -25 -63 -49
-85 -86 -75 -128 -127 -166 -204 -22 -44 -42 -81 -45 -81 -5 0 -61 170 -62
187 -1 5 11 14 25 21 46 22 95 82 117 140 26 67 30 188 11 296 -7 39 -9 91 -5
120 9 69 11 222 2 244 -4 9 -7 -20 -7 -65 -1 -46 -1 -85 -2 -88 -15 -88 -34
-134 -68 -170 -61 -64 -129 -162 -136 -195 -1 -3 -6 -22 -13 -43 -6 -21 -8
-45 -5 -53 11 -29 -9 -13 -23 19 -8 17 -38 78 -68 134 l-53 103 32 24 c18 14
40 42 50 62 21 45 26 147 10 224 -6 31 -10 102 -7 160 4 109 -4 135 -12 40 -7
-92 -16 -115 -63 -166 -24 -27 -59 -79 -76 -115 l-32 -66 -46 76 -47 75 27 35
c36 47 38 118 5 182 -18 36 -23 59 -20 98 4 49 0 65 -9 39z"/>
<path d="M1275 5198 c2 -27 -6 -65 -22 -103 -31 -73 -27 -129 11 -180 l27 -35
-24 -32 c-14 -18 -34 -50 -45 -71 -17 -33 -32 -48 -32 -32 1 18 -57 112 -104
170 -40 48 -56 76 -57 99 -1 53 -9 120 -15 125 -3 3 -4 -48 -4 -114 1 -66 -1
-131 -5 -145 -11 -45 -13 -151 -3 -190 11 -43 62 -110 84 -110 8 0 14 -1 14
-3 0 -5 -140 -279 -141 -275 0 2 -2 19 -5 38 -7 57 -58 152 -120 226 -32 38
-61 71 -64 74 -21 15 -39 117 -41 230 0 48 -4 66 -8 50 -8 -30 -7 -166 3 -235
4 -29 1 -88 -7 -141 -21 -135 -13 -234 24 -306 24 -47 85 -107 117 -115 13 -3
21 -11 19 -17 -2 -6 -16 -47 -32 -91 -16 -44 -31 -83 -34 -87 -4 -4 -25 29
-46 74 -41 84 -137 198 -167 198 -19 0 -64 137 -77 234 -6 38 -9 121 -7 185 3
82 1 106 -5 81 -32 -123 -29 -340 5 -453 14 -46 14 -65 2 -132 -31 -173 -22
-308 28 -415 23 -51 102 -132 146 -150 22 -9 27 -17 24 -35 -4 -26 -12 -108
-13 -143 -1 -20 -12 -12 -74 50 -39 41 -110 101 -157 135 -85 62 -86 63 -199
248 -62 102 -115 185 -118 185 -2 0 -2 -3 0 -7 3 -5 15 -30 27 -58 12 -27 44
-95 70 -150 96 -203 92 -187 96 -324 2 -69 5 -137 7 -151 30 -190 98 -316 207
-385 40 -25 71 -34 169 -49 8 -2 24 -35 38 -82 13 -43 33 -96 44 -116 l20 -37
-21 4 c-12 2 -29 6 -38 9 -36 10 -108 20 -233 30 -42 4 -71 15 -120 45 -94 59
-314 193 -351 215 -45 26 -31 13 97 -90 61 -48 148 -119 195 -158 47 -38 86
-70 88 -72 4 -2 9 -38 16 -112 8 -73 14 -94 65 -201 24 -51 119 -144 174 -170
135 -65 327 -61 451 8 29 17 35 17 61 3 54 -28 108 -72 94 -75 -74 -19 -177
-61 -294 -118 -118 -58 -146 -68 -180 -65 -36 4 -80 8 -260 21 -105 8 -199 16
-232 20 -18 2 -34 1 -37 -3 -2 -4 3 -8 12 -9 17 -2 111 -22 217 -48 33 -8 71
-16 85 -19 14 -2 45 -9 70 -16 46 -12 58 -15 120 -26 49 -9 56 -14 138 -94
284 -277 605 -313 916 -105 l94 63 64 -35 c82 -46 143 -93 177 -136 14 -17 11
-18 -40 -12 -53 5 -181 6 -229 1 -93 -10 -188 -54 -300 -141 -47 -36 -94 -72
-105 -80 -19 -14 -110 -19 -528 -29 -53 -2 -100 -6 -104 -9 -3 -4 4 -7 18 -6
13 0 38 -2 54 -4 17 -3 57 -8 90 -11 33 -4 80 -9 105 -12 25 -3 61 -6 80 -8
73 -8 156 -17 175 -21 11 -2 36 -4 57 -4 35 -1 37 -4 67 -67 41 -87 124 -168
222 -216 75 -37 93 -43 186 -57 130 -19 284 20 384 99 l39 32 1 -29 c0 -15 3
-66 6 -113 8 -125 8 -547 0 -687 l-7 -123 67 0 66 0 -7 503 c-3 276 -8 518
-10 537 -2 19 -7 62 -10 95 -11 117 -38 219 -81 302 -17 33 -97 128 -128 151
-10 8 -25 22 -35 31 -9 10 -33 28 -52 41 -19 14 -40 29 -47 36 -6 6 -35 26
-65 45 -29 18 -55 36 -58 39 -3 3 -21 13 -40 24 -71 38 -126 70 -178 103 -29
18 -55 33 -58 33 -11 0 -190 124 -259 179 -185 148 -238 239 -238 411 -1 76
32 216 57 249 9 12 6 13 -19 7 -84 -19 -149 -53 -201 -105 -30 -30 -54 -60
-54 -67 0 -6 -7 -24 -14 -40 -8 -15 -13 -31 -10 -36 3 -4 1 -8 -5 -8 -5 0 -12
8 -15 18 -4 10 -14 27 -24 38 -16 17 -52 98 -67 152 -5 18 -2 22 17 23 13 0
32 2 43 4 11 2 35 7 54 10 106 20 210 102 269 213 38 70 82 184 89 227 6 39
43 149 52 155 26 18 130 290 112 290 -4 0 -17 -19 -27 -42 -44 -98 -150 -223
-197 -233 -12 -2 -47 -6 -77 -9 -111 -11 -215 -55 -289 -124 -55 -53 -108
-133 -117 -181 -20 -98 -43 57 -40 266 1 89 5 166 9 169 4 4 48 -5 98 -21 103
-31 177 -34 254 -8 74 24 159 114 213 225 23 48 42 95 42 104 0 9 27 41 59 71
61 56 142 164 181 243 26 52 20 47 -42 -35 -110 -144 -180 -190 -286 -188 -34
1 -79 7 -100 14 -62 21 -160 17 -214 -10 -45 -22 -131 -98 -155 -137 -11 -19
-12 -19 -8 1 7 38 33 132 56 197 l22 66 31 -10 c17 -5 59 -11 94 -14 106 -7
190 43 254 154 14 24 28 43 32 42 17 -4 78 15 141 45 105 50 166 118 193 218
14 50 7 47 -17 -8 -40 -91 -127 -149 -262 -173 -53 -10 -84 -10 -220 3 -49 5
-75 3 -104 -9 -21 -9 -39 -15 -41 -13 -3 3 43 108 51 115 2 2 28 -5 57 -15 64
-23 110 -21 177 7 48 21 117 84 155 143 10 15 26 27 35 27 9 0 43 15 76 33
110 59 144 147 96 247 -12 25 -19 36 -15 25 30 -104 4 -179 -75 -216 -71 -34
-103 -34 -167 -4 -48 23 -67 26 -118 23 -34 -3 -69 -8 -79 -13 -15 -6 -14 -2
6 36 17 33 28 43 42 40 11 -2 49 -5 85 -6 99 -5 154 35 188 133 6 19 29 55 50
80 86 105 91 121 15 53 l-72 -65 -73 0 c-40 -1 -81 -5 -92 -10 -17 -8 -17 -7
-5 14 45 74 93 145 102 148 4 2 7 11 7 19 0 9 -19 -8 -42 -38 l-43 -53 -7 42
c-8 45 -24 82 -44 97 -14 10 -22 40 -23 88 -1 15 -5 27 -9 27 -5 0 -8 -19 -7
-42z"/>
<path d="M3700 4150 c0 -5 5 -10 11 -10 5 0 7 5 4 10 -3 6 -8 10 -11 10 -2 0
-4 -4 -4 -10z"/>
</g>
</svg>
